<?xml version="1.0" encoding="UTF-8" standalone="no"?>
<!-- Created with Inkscape (http://www.inkscape.org/) -->

<svg
   xmlns:dc="http://purl.org/dc/elements/1.1/"
   xmlns:cc="http://creativecommons.org/ns#"
   xmlns:rdf="http://www.w3.org/1999/02/22-rdf-syntax-ns#"
   xmlns:svg="http://www.w3.org/2000/svg"
   xmlns="http://www.w3.org/2000/svg"
   xmlns:sodipodi="http://sodipodi.sourceforge.net/DTD/sodipodi-0.dtd"
   xmlns:inkscape="http://www.inkscape.org/namespaces/inkscape"
   width="502"
   height="502.00006"
   id="svg2"
   version="1.1"
   inkscape:version="0.48.3.1 r9886"
   sodipodi:docname="LogoITCH.svg"
   inkscape:export-filename="/home/ddc/LogoITCH.png"
   inkscape:export-xdpi="90"
   inkscape:export-ydpi="90">
  <defs
     id="defs4">
    <path
       transform="matrix(0.27433461,0,0,0.27433461,-2.9727561,-165.03957)"
       d="m 221.42857,737.7193 a 86.071426,86.071426 0 1 1 -172.142849,0 86.071426,86.071426 0 1 1 172.142849,0 z"
       sodipodi:ry="86.071426"
       sodipodi:rx="86.071426"
       sodipodi:cy="737.7193"
       sodipodi:cx="135.35715"
       id="path4690"
       style="fill:none;stroke:none"
       sodipodi:type="arc" />
  </defs>
  <sodipodi:namedview
     id="base"
     pagecolor="#ffffff"
     bordercolor="#666666"
     borderopacity="1.0"
     inkscape:pageopacity="0"
     inkscape:pageshadow="2"
     inkscape:zoom="0.90509668"
     inkscape:cx="645.6571"
     inkscape:cy="440.26353"
     inkscape:document-units="px"
     inkscape:current-layer="layer1"
     showgrid="false"
     showguides="true"
     inkscape:window-width="1920"
     inkscape:window-height="1023"
     inkscape:window-x="0"
     inkscape:window-y="0"
     inkscape:window-maximized="1"
     fit-margin-top="1"
     fit-margin-right="1"
     fit-margin-bottom="1"
     fit-margin-left="1">
    <inkscape:grid
       type="xygrid"
       id="grid2985"
       empspacing="5"
       visible="true"
       enabled="true"
       snapvisiblegridlinesonly="true"
       originx="1px"
       originy="1.00005px" />
  </sodipodi:namedview>
  <metadata
     id="metadata7">
    <rdf:RDF>
      <cc:Work
         rdf:about="">
        <dc:format>image/svg+xml</dc:format>
        <dc:type
           rdf:resource="http://purl.org/dc/dcmitype/StillImage" />
        <dc:title></dc:title>
      </cc:Work>
    </rdf:RDF>
  </metadata>
  <g
     inkscape:label="Layer 1"
     inkscape:groupmode="layer"
     id="layer1"
     transform="translate(1,-551.36215)">
    <path
       style="fill:#003b92;fill-opacity:1;stroke:none"
       d="m 250,552.36215 c -138.07119,0 -250,111.92881 -250,250 0,138.07119 111.92881,250.00005 250,250.00005 138.07119,0 250,-111.92886 250,-250.00005 0,-138.07119 -111.92881,-250 -250,-250 z m -54.14701,16.01808 -5.2673,6.7217 -3.36085,0.86478 2.90881,-6.11242 5.71934,-1.47406 z m 51.84748,1.59198 0.62893,31.64308 -6.5055,0.11793 -0.62893,-31.62343 6.5055,-0.13758 z m 15.74293,0 c 0.25878,-0.007 0.52178,-0.005 0.78616,0 0.27291,0.006 0.54671,0.021 0.82547,0.0393 7.36142,0.48426 12.32562,4.94863 12.42139,12.08727 l -6.19104,-0.41274 c -0.24103,-1.62498 -0.97478,-5.75635 -6.38758,-6.11242 -5.10969,-0.33613 -8.46434,3.62187 -8.92296,10.59355 -0.45293,6.88509 2.22927,11.14755 7.25236,11.47799 4.02712,0.26492 6.73526,-1.85543 7.38994,-5.85692 l 6.32861,0.41274 c -0.86543,7.20586 -6.41147,11.40397 -14.24921,10.88836 -8.79039,-0.57826 -13.87411,-7.30041 -13.20755,-17.43317 0.63091,-9.59065 5.93205,-15.48151 13.95441,-15.68397 z m -38.42375,0.66824 c 0.45856,-0.02 0.91328,-0.0144 1.35614,0 6.19991,0.20093 10.74537,3.61137 12.04795,9.19812 l -6.09277,0.66823 c -1.20023,-2.57468 -3.57208,-4.71944 -8.05817,-4.22562 -5.4782,0.60302 -8.35163,5.05949 -7.60613,11.83176 0.71223,6.47032 4.96142,10.63742 10.18081,10.06289 1.59602,-0.17569 7.30754,-1.84721 7.21305,-7.86164 l -7.15408,0.78617 -0.58963,-5.40488 12.59827,-1.37578 1.86714,17.00078 -3.89151,0.41274 -1.21855,-4.04874 c -2.02623,3.80301 -4.71533,5.62748 -8.94261,6.09276 -8.49769,0.9354 -15.47971,-5.32555 -16.52909,-14.85849 -1.07784,-9.79175 4.3653,-17.16325 13.42374,-18.16037 0.47449,-0.0522 0.93688,-0.0979 1.39544,-0.11793 z m 67.70834,3.24293 c 1.06485,0.006 2.15583,0.12203 3.28223,0.35377 8.96872,1.84516 13.60505,9.65517 11.57626,19.51651 -1.82767,8.88372 -8.91057,14.88681 -18.21934,12.9717 -9.09625,-1.87139 -13.51761,-9.88368 -11.57626,-19.31997 1.69869,-8.25675 7.48318,-13.56421 14.93711,-13.52201 z m -97.97563,2.3978 c 7.06957,-0.0572 12.82322,4.78345 14.93711,13.011 2.25696,8.78447 -1.48706,17.26948 -10.69183,19.63444 -8.99462,2.31095 -16.47058,-2.93329 -18.86792,-12.26416 -2.39736,-9.33086 1.66334,-17.54161 10.5739,-19.83097 1.38571,-0.35603 2.73956,-0.53972 4.04874,-0.55031 z m 98.30975,3.22327 c -4.28376,0.0679 -7.71295,3.5273 -8.88365,9.21776 -1.33796,6.50339 1.16576,11.50085 6.30896,12.55897 5.10069,1.04938 9.42816,-2.55029 10.73113,-8.88365 1.38168,-6.71592 -1.06108,-11.64059 -6.2893,-12.7162 -0.6429,-0.13226 -1.25517,-0.18658 -1.86714,-0.17688 z m -99.03695,2.41745 c -0.61727,0.0222 -1.24057,0.10912 -1.8868,0.27516 -5.08574,1.30666 -7.37155,6.42304 -5.71933,12.85377 1.65222,6.43074 6.11708,9.79723 11.20283,8.49057 5.0437,-1.29587 7.34801,-6.41428 5.73899,-12.67689 -1.49295,-5.81078 -5.01479,-9.09837 -9.33569,-8.94261 z m 131.58412,0.68789 11.43868,4.67767 c 4.49805,1.84136 6.86378,3.97899 7.86163,7.15409 1.19494,3.72469 0.7997,8.21814 -1.04167,12.7162 -1.85779,4.53821 -4.72878,7.99069 -8.1761,9.76808 -2.9379,1.56392 -6.17497,1.47114 -10.63286,-0.35377 l -11.43868,-4.69733 11.989,-29.26494 z m -165.78224,5.0511 9.66982,24.35142 14.07232,-5.58176 2.00472,5.03144 -20.12579,7.99922 -11.67453,-29.40252 6.05346,-2.3978 z m 169.75236,2.41745 -7.88129,19.24136 5.42453,2.22091 c 4.53821,1.8578 8.08097,-0.39418 10.71148,-6.81997 2.64696,-6.46595 1.68836,-10.56358 -2.84984,-12.42138 l -5.40488,-2.22092 z m 23.89937,4.42217 19.90959,11.22249 -2.6533,4.73663 -14.24921,-8.03852 -3.51808,6.23035 13.18789,7.4489 -2.67296,4.71698 -13.18789,-7.42925 -4.02909,7.13444 14.93711,8.41195 -2.67296,4.73663 -20.59748,-11.61556 15.54638,-27.55504 z m -209.6305,1.90645 c 5.47433,0.018 10.58759,3.2968 13.93475,9.35535 4.38592,7.93878 2.91375,17.08266 -5.40488,21.67846 -8.1287,4.49084 -16.70525,1.29814 -21.36399,-7.13444 -4.65874,-8.43259 -2.76579,-17.40646 5.28695,-21.85534 2.50461,-1.38372 5.05884,-2.0522 7.54717,-2.04403 z m -1.27752,5.81761 c -1.18332,0.0666 -2.38936,0.41603 -3.55739,1.06132 -4.59613,2.53923 -5.51027,8.06414 -2.29952,13.87579 3.21074,5.81164 8.37555,7.96374 12.97169,5.42453 4.55816,-2.51824 5.50496,-8.05885 2.37815,-13.71856 -2.48677,-4.50125 -5.94296,-6.84276 -9.49293,-6.64308 z m -23.1132,6.68239 19.02515,25.27516 -5.18867,3.91116 -23.30975,-9.82704 13.14858,17.47248 -5.20833,3.93082 -19.025159,-25.27516 5.345909,-4.02909 22.95598,9.65016 -12.93239,-17.19733 5.18868,-3.91116 z m 129.55975,4.24528 c 105.04239,0 190.19261,85.15022 190.19261,190.19261 0,105.0424 -85.15022,190.19261 -190.19261,190.19261 -105.0424,0 -190.192614,-85.15021 -190.192614,-190.19261 0,-105.04239 85.150214,-190.19261 190.192614,-190.19261 z m 138.69889,5.68004 c 3.05998,-0.004 6.10846,1.12462 8.92296,3.41981 5.71727,4.66237 7.18561,11.18773 3.125,17.05975 l -4.81525,-3.93082 c 0.7457,-1.46376 2.55293,-5.2589 -1.65094,-8.68711 -3.96846,-3.23624 -8.98854,-1.95547 -13.40409,3.45912 -4.36069,5.34733 -4.64805,10.37994 -0.74686,13.56132 3.12768,2.55049 6.56104,2.3895 9.41431,-0.49135 l 4.91352,4.00943 c -4.88277,5.36958 -11.83732,5.57334 -17.92453,0.60928 -6.82707,-5.56742 -7.0662,-13.9857 -0.64858,-21.85535 3.84302,-4.71254 8.34219,-7.14838 12.81446,-7.15408 z M 94.791667,631.80397 c 0.210151,-0.008 0.418742,-0.004 0.62893,0 2.615648,0.0507 5.224183,1.04232 7.586483,3.0857 l -4.422174,4.3632 c -1.374742,-0.89935 -4.943183,-3.10182 -8.805032,0.70755 -3.645585,3.59606 -2.921421,8.72484 1.985063,13.6989 4.845522,4.91228 9.820293,5.73636 13.404093,2.20126 2.87322,-2.83418 3.06712,-6.26682 0.511,-9.41431 l 4.52044,-4.44182 c 4.81127,5.4337 4.27514,12.36924 -1.31682,17.88522 -6.27165,6.18642 -14.684895,5.49983 -21.81604,-1.72956 -7.192069,-7.29118 -7.700818,-15.73475 -1.336478,-22.01258 2.769667,-2.73203 5.908233,-4.22237 9.060535,-4.34356 z m 314.956763,2.27988 4.46148,4.73663 -8.6478,8.11714 8.56918,9.09984 8.62814,-8.09748 4.48114,4.77594 -23.05425,21.65881 -4.46148,-4.75629 10.47563,-9.82704 -8.58883,-9.13916 -10.47563,9.82705 -4.44183,-4.73664 23.05425,-21.6588 z m -335.927675,14.97641 4.264937,3.36085 -10.14151,12.83412 5.62107,4.44183 9.375,-11.89073 4.264937,3.36085 -9.394654,11.89072 6.44654,5.09041 10.613208,-13.46305 4.264937,3.38051 -14.66195,18.55346 -24.823113,-19.61478 14.170598,-17.94419 z m 356.112425,7.40959 4.00943,5.12972 -24.88208,19.53616 -4.00943,-5.12971 24.88208,-19.53617 z m 6.70204,8.41195 3.63601,5.40488 -21.77673,14.60299 8.45125,12.57861 -4.52044,3.00708 -12.04795,-17.98349 26.25786,-17.61007 z m -379.009434,4.81526 4.618711,2.84984 -4.85456,7.86163 22.30739,13.77752 -3.419811,5.54245 -22.30739,-13.77751 -5.051101,8.15644 -4.599056,-2.84984 13.305817,-21.56053 z m 392.983494,16.41116 6.38758,12.42138 c 3.02162,5.86341 1.58321,10.65897 -4.04875,13.56132 -5.7091,2.94212 -11.0744,1.5134 -13.7382,-3.65566 l -3.71463,-7.21305 -10.04324,5.16903 -2.96776,-5.7783 28.125,-14.50472 z m -1.84749,8.27437 -8.45126,4.36321 2.79089,5.40487 c 1.59033,3.086 3.6706,3.8099 6.52515,2.33884 2.8931,-1.49094 3.51644,-3.61605 1.9261,-6.70205 l -2.79088,-5.40487 z M 45.794025,707.25602 c 2.402343,-0.0154 4.973751,0.47006 7.606132,1.51336 8.431653,3.34176 13.092843,11.34963 9.591195,20.18475 -3.421699,8.6334 -12.054071,11.60779 -21.01022,8.05818 -8.955784,-3.54964 -13.216762,-11.67135 -9.827044,-20.22406 2.424872,-6.11828 7.500616,-9.49284 13.639937,-9.53223 z m -0.412736,6.36792 c -3.763543,-0.0305 -6.686429,1.75752 -8.038522,5.16903 -1.934698,4.8815 0.863688,9.71951 7.036164,12.16588 6.172484,2.44634 11.508698,0.83276 13.443396,-4.04874 1.918716,-4.84117 -0.848164,-9.72453 -6.859277,-12.10692 -1.991936,-0.78947 -3.871059,-1.16537 -5.581761,-1.17925 z m 420.695751,5.44418 2.47642,6.76101 -23.97799,19.57547 28.47878,-6.36792 1.47405,6.52516 -18.2783,16.94182 21.01022,-4.69733 1.41509,6.34827 -30.87657,6.89859 -1.41509,-6.34827 18.57311,-17.17768 -21.34434,4.75629 -1.41509,-6.34827 0.0393,0 -1.90645,-5.20833 5.26729,-4.14701 -4.08805,-11.12422 -6.72169,0.19654 -2.27988,-6.23034 33.56918,-0.35378 z m -5.81761,5.83727 -13.03066,0.39308 2.84985,7.74371 10.18081,-8.13679 z m -433.706757,8.23506 5.267296,1.31683 -2.279875,8.96226 25.412736,6.44654 -1.591981,6.30896 -25.412736,-6.44654 -2.35849,9.31604 -5.247642,-1.33648 6.210692,-24.56761 z m -6.878931,28.16431 21.285377,2.63365 c 8.871669,1.09905 10.227762,8.5196 9.571541,13.81682 -0.65622,5.29722 -3.785463,12.16429 -12.657232,11.06525 l -21.285378,-2.63364 0.805818,-6.44655 21.265723,2.63365 c 3.789881,0.4695 5.846734,-1.25831 6.348271,-5.3066 0.501502,-4.04828 -1.064677,-6.21286 -4.85456,-6.68239 l -21.285377,-2.63365 0.805817,-6.44654 z m 445.558178,8.47091 c 9.16091,-0.14978 15.2147,4.75982 15.93946,13.10928 0.63798,7.34969 -3.00174,12.9341 -10.04324,14.11163 l -0.55031,-6.19103 c 1.56961,-0.48473 5.5595,-1.82853 5.09041,-7.23271 -0.44283,-5.10155 -4.87118,-7.81724 -11.83176,-7.21305 -6.87412,0.59669 -10.67508,3.90787 -10.23978,8.92296 0.349,4.0207 2.86375,6.3671 6.91824,6.40723 l 0.55031,6.30896 c -7.25376,0.23761 -12.25317,-4.59612 -12.93239,-12.42138 -0.76182,-8.7764 5.1153,-14.82542 15.23192,-15.70362 0.63769,-0.0553 1.25641,-0.0883 1.86714,-0.0983 z m -448.860065,20.02752 5.424529,0 0,9.25707 26.218553,-0.0196 0,6.52516 -26.218553,0 0,9.59119 -5.424529,0 0,-25.35377 z m 465.113995,9.19811 0.0196,6.5055 -31.64308,0.059 -0.0197,-6.50551 31.64308,-0.059 z m -31.26966,8.45126 31.50551,2.77123 -0.56997,6.64308 -22.54324,10.63286 21.44261,1.86714 -0.56997,6.48585 -31.5055,-2.75158 0.56997,-6.48585 22.89701,-10.77044 -21.79638,-1.90644 0.56996,-6.48585 z m -401.847479,7.38994 0.491352,6.48584 -31.544811,2.41746 -0.491353,-6.48585 31.544812,-2.41745 z m -25.805818,10.23978 1.415094,9.13915 25.904088,-4.00944 1.002359,6.42689 -25.904088,4.00943 1.474057,9.49293 -5.365567,0.82547 -3.891509,-25.03931 5.365566,-0.84512 z m 436.517297,11.20283 c 1.38519,0.0222 2.82451,0.19342 4.28459,0.53066 9.59819,2.21691 14.74743,9.79198 12.69654,18.67138 -1.71884,7.44177 -6.92518,11.67081 -13.4434,10.96698 l 1.37579,-5.97484 c 2.82663,-0.28244 5.6274,-1.81327 6.64308,-6.21069 1.2403,-5.36992 -2.02904,-9.55162 -8.66745,-11.08491 -6.34242,-1.46492 -11.67207,1.17308 -12.85377,6.28931 -0.36136,1.56446 -0.65697,7.5169 5.0511,9.41431 l 1.61163,-7.01651 5.28695,1.21855 -2.84984,12.34277 -16.66667,-3.8522 0.88444,-3.79324 4.24528,0.17689 c -2.92028,-3.16867 -3.76761,-6.31227 -2.81054,-10.45598 1.62333,-7.0282 7.73223,-11.34258 15.21227,-11.22248 z m -413.541668,9.94496 c 0.272502,-0.0113 0.539747,-0.0112 0.805818,0 4.611893,0.19378 8.223293,3.77606 10.00393,10.16117 2.168243,7.77499 -0.128762,13.23373 -6.544811,15.42846 l -1.709906,-6.09277 c 3.202182,-1.11826 4.333685,-4.01066 3.144655,-8.27437 -1.060802,-3.80389 -3.248092,-5.72288 -5.797956,-5.01179 -2.466223,0.68778 -3.221366,2.57561 -2.849843,6.9772 l 0.353773,4.48113 c 0.554834,6.51294 -1.074439,9.55145 -5.797956,10.86871 -5.93574,1.65532 -10.538611,-1.60777 -12.578616,-8.92296 -1.31726,-4.72351 -1.871858,-12.36182 6.446541,-14.6816 l 1.631289,5.83726 c -3.035002,1.07164 -4.094854,3.75296 -2.987421,7.72406 0.897604,3.21867 2.928936,4.86677 5.227987,4.22563 2.215452,-0.61782 2.747625,-2.16142 2.378145,-6.87893 l -0.412736,-5.01179 c -0.486892,-5.94622 1.344606,-9.07609 6.15173,-10.41667 0.869983,-0.24262 1.717871,-0.37876 2.535377,-0.41274 z m 403.439468,18.94655 c 2.36029,-0.0311 4.86379,0.43519 7.38993,1.41509 8.98183,3.48408 13.29176,11.56818 9.96463,20.14544 -3.31145,8.5368 -11.80068,11.81712 -21.18711,8.1761 -8.45591,-3.28006 -13.18542,-11.26533 -9.74843,-20.12579 2.41394,-6.22306 7.54912,-9.53125 13.58098,-9.61084 z m -389.996072,4.26493 2.555032,5.9945 -15.153302,20.26336 20.125786,-8.56918 2.555031,5.9945 -29.107704,12.38207 -2.613994,-6.15173 14.878145,-19.96855 -19.791667,8.4316 -2.555031,-5.97484 29.107704,-12.40173 z m 389.544022,2.12264 c -3.71705,0.0363 -6.6347,1.86232 -7.94025,5.22799 -1.88329,4.85505 0.92919,9.7292 6.95755,12.06761 6.39248,2.47967 11.6506,0.88837 13.58097,-4.08805 1.89898,-4.89551 -0.92459,-9.72538 -7.11478,-12.12657 -1.93443,-0.75037 -3.79392,-1.09748 -5.48349,-1.08098 z m -378.262575,23.05425 3.085692,5.73899 -27.889151,14.95676 -3.066038,-5.73899 27.869497,-14.95676 z m 147.838055,117.51176 2.1816,0 0,26.6903 -3.30189,0 0,-19.0055 -5.91588,0 0,-2.3782 c 5.12049,-0.64 5.869,-1.2027 7.03617,-5.3066 z m 20.24371,0 c 6.6265,0 9.00157,5.4253 9.00157,13.0307 0,12.3494 -5.67553,14.5244 -9.5912,14.5244 -4.06626,0 -6.94641,-2.5901 -7.58647,-6.9576 l 3.32154,0 c 0.5271,2.5603 2.14679,4.0291 4.48113,4.0291 3.80271,0 5.91751,-3.6083 5.95519,-10.1219 -1.73193,2.0709 -3.58983,2.9678 -6.11242,2.9678 -4.81928,0 -8.19576,-3.501 -8.19576,-8.4709 0,-5.2334 3.64358,-9.0016 8.72642,-9.0016 z m 21.14779,0 c 4.74398,0 8.01887,2.9356 8.01887,7.1148 0,2.5226 -0.90717,3.8858 -3.65566,5.5425 3.08735,1.4683 4.59906,3.6883 4.59906,6.6627 0,4.8569 -3.69118,8.2351 -8.96227,8.2351 -5.27108,0 -8.96226,-3.3798 -8.96226,-8.2744 0,-2.9367 1.51005,-5.1551 4.55975,-6.6234 -2.71084,-1.6943 -3.61635,-3.0576 -3.61635,-5.5425 0,-4.1792 3.31254,-7.1148 8.01886,-7.1148 z m 23.78145,0 2.45676,0 0,17.3153 3.95047,0 0,2.9874 -3.95047,0 0,6.3876 -3.32154,0 0,-6.3876 -11.26179,0 0,-3.5181 12.12657,-16.7846 z m -44.96855,2.9088 c -3.0497,0 -5.30661,2.4291 -5.30661,5.8176 0,3.5768 2.00804,5.798 5.20834,5.798 3.23795,0 5.5228,-2.3258 5.5228,-5.6014 0,-3.4639 -2.33718,-6.0142 -5.42453,-6.0142 z m 21.1871,0.02 c -2.78614,0 -4.63836,1.6654 -4.63836,4.2256 0,2.5226 1.85222,4.1863 4.63836,4.1863 2.78615,0 4.63837,-1.662 4.63837,-4.147 0,-2.5979 -1.81457,-4.2649 -4.63837,-4.2649 z m 22.91667,2.7123 -8.35299,11.6745 8.35299,0 0,-11.6745 z m -22.91667,8.4709 c -3.31325,0 -5.5621,2.1226 -5.5621,5.2476 0,3.125 2.24554,5.2673 5.48349,5.2673 3.38855,0 5.66038,-2.1047 5.66038,-5.2673 0,-3.125 -2.26851,-5.2476 -5.58177,-5.2476 z"
       id="path4150-2"
       inkscape:connector-curvature="0" />
    <path
       style="fill:#003b92;fill-opacity:1;stroke:none"
       d="m 174.84277,675.39674 c -6.86274,0 -13.73513,0.82277 -17.98349,2.45676 l -3.24293,29.24529 c -8.47211,2.35962 -16.40097,5.99384 -23.5849,10.69182 l 0.68789,-0.7272 -23.78145,-17.59041 c -8.173091,4.00933 -21.069714,17.90333 -24.449682,26.35613 l 19.339622,22.38601 0.15723,-0.17689 c -3.125557,5.67527 -5.598557,11.74871 -7.37028,18.12107 l -28.773585,3.20362 c -3.267974,8.49673 -3.267974,27.45059 0,35.94732 l 27.889151,3.0857 c 2.209333,9.44647 5.996245,18.27717 11.065254,26.21855 L 87.224843,858.1208 c 3.967082,8.19368 17.802967,21.16371 26.238207,24.58726 l 22.3467,-19.12343 c 5.61106,3.06404 11.59734,5.50759 17.88522,7.25236 l 3.16431,28.57705 c 8.49673,3.26797 27.45059,3.26797 35.94732,0 l 3.06604,-27.71227 c 10.38914,-2.42732 20.04286,-6.76708 28.57705,-12.61792 l 24.13522,16.56839 c 8.02719,-4.29397 20.40571,-18.63493 23.48663,-27.20125 l -19.71305,-21.24607 c 2.97585,-5.89306 5.2755,-12.16835 6.81997,-18.75 l 28.40016,-3.14466 c 3.26796,-8.49673 3.26796,-27.45059 0,-35.94732 l -29.26494,-3.26258 c -8.26986,-29.65961 -32.22281,-52.77407 -62.36242,-59.8467 L 192.8066,677.8535 c -4.24837,-1.63399 -11.10109,-2.45676 -17.96383,-2.45676 z m 1.63129,51.47406 c 34.29219,0 62.08726,27.79507 62.08726,62.08726 0,34.29219 -27.79507,62.08727 -62.08726,62.08727 -34.29219,0 -62.08727,-27.79508 -62.08727,-62.08727 0,-34.29219 27.79508,-62.08726 62.08727,-62.08726 z"
       id="path3864"
       inkscape:connector-curvature="0" />
    <path
       style="fill:#bbbbbb;fill-opacity:1;fill-rule:evenodd;stroke:none"
       d="m 176.47406,733.41561 c -19.66564,0 -36.9626,10.21248 -46.8357,25.62893 l 29.5401,0 1.08097,0 0.76651,0.76651 11.81211,11.79245 0,-9.94497 0,-2.61399 2.59434,0 47.87736,0.059 c -9.86764,-15.44482 -27.14845,-25.68789 -46.83569,-25.68789 z m -49.78381,30.83726 c -3.13528,6.3041 -5.09202,13.29288 -5.62107,20.6761 l 21.95362,0.13758 2.61399,0 0,2.614 0,0.64858 3.89151,0 2.614,0 0,2.59434 0,0.64859 3.89151,0 2.61399,0 0,2.59434 0,0.66823 22.15016,0 12.24449,-15.29088 4.61871,-5.79795 0,7.42924 0,13.65959 c 0,0 34.06815,0.01 34.04088,0.0393 0.20566,-1.94391 0.31447,-3.91746 0.31447,-5.91588 0,-8.87688 -2.07606,-17.26248 -5.7783,-24.70519 l -48.19183,0 0,13.65959 0,6.28931 -4.46147,-4.46148 -15.48743,-15.48742 -31.40723,0 z m -5.75865,23.58491 c -0.007,0.37465 -0.0196,0.74384 -0.0196,1.12028 0,0.44002 0.009,0.87925 0.0196,1.31683 -2.2e-4,-0.71871 -0.0149,-1.53926 0,-2.43711 z m 0,2.43711 c 0.26418,11.358 3.94468,21.87215 10.04324,30.5621 l 48.48664,0 0,-13.65959 0,-6.26965 4.44182,4.42217 27.04403,27.1816 c 10.07355,-7.98918 17.32315,-19.39147 19.96855,-32.46855 0.24392,0.007 -35.84906,-0.0197 -35.84906,-0.0197 l -2.59434,0 0,-2.59434 0,-8.84434 -8.39229,10.47563 -0.76651,0.96305 -1.25786,0 -26.02201,0 -2.59434,0 0,-2.59434 0,-0.64858 -3.91117,0 -2.59434,0 0,-2.61399 0,-0.64859 -3.91116,0 -2.59434,0 0,-2.59434 0,-0.64858 -19.49686,0 z m 63.71856,23.19182 0,9.98428 0,2.59434 -2.59434,0 -46.93396,0 c 10.17155,11.3344 24.92591,18.47484 41.3522,18.47484 11.16225,0 21.54244,-3.296 30.24764,-8.96227 l -22.07154,-22.09119 z"
       id="path2998"
       inkscape:connector-curvature="0" />
    <g
       id="g4135"
       transform="matrix(0.65359478,0,0,0.65359478,-22.875815,522.71366)">
      <path
         sodipodi:nodetypes="cccssccccc"
         inkscape:connector-curvature="0"
         id="path4030"
         d="m 350,247.36218 254,-14 2.85095,0.13258 c 1,0 4.14905,1.86742 5.18241,4.06553 6.93772,14.7575 3.30556,21.49258 -1.03336,31.80189 -0.2627,0.62417 -1,1 -3.10485,2.17678 l -2.20795,0.4682 L 345,257.36218 l 0,-10 z"
         style="fill:#bbbbbb;fill-opacity:1;stroke:#bbbbbb;stroke-width:1px;stroke-linecap:butt;stroke-linejoin:miter;stroke-opacity:1" />
      <path
         inkscape:connector-curvature="0"
         id="path4036"
         d="m 582.25,234.86218 0,-9 2.5,-4 5,0 2.5,4 0,9 z"
         style="fill:#bbbbbb;fill-opacity:1;stroke:#bbbbbb;stroke-width:1.11803401px;stroke-linecap:butt;stroke-linejoin:bevel;stroke-opacity:1" />
      <path
         inkscape:connector-curvature="0"
         id="path4036-7"
         d="m 556.5,236.36218 0,-9 2.5,-4 5,0 2.5,4 0,9 z"
         style="fill:#bbbbbb;fill-opacity:1;stroke:#bbbbbb;stroke-width:1.11803412px;stroke-linecap:butt;stroke-linejoin:bevel;stroke-opacity:1" />
      <path
         inkscape:connector-curvature="0"
         id="path4036-7-3"
         d="m 568,269.36218 0,9 -2.5,4 -5,0 -2.5,-4 0,-9 z"
         style="fill:#bbbbbb;fill-opacity:1;stroke:#bbbbbb;stroke-width:1.11803412px;stroke-linecap:butt;stroke-linejoin:bevel;stroke-opacity:1" />
      <path
         inkscape:connector-curvature="0"
         id="path4036-7-3-8"
         d="m 541,268.36218 0,9 -2.5,4 -5,0 -2.5,-4 0,-9 z"
         style="fill:#bbbbbb;fill-opacity:1;stroke:#bbbbbb;stroke-width:1.11803412px;stroke-linecap:butt;stroke-linejoin:bevel;stroke-opacity:1" />
      <path
         inkscape:connector-curvature="0"
         id="path4036-7-3-4"
         d="m 594,270.36218 0,9 -2.5,4 -5,0 -2.5,-4 0,-9 z"
         style="fill:#bbbbbb;fill-opacity:1;stroke:#bbbbbb;stroke-width:1.11803412px;stroke-linecap:butt;stroke-linejoin:bevel;stroke-opacity:1" />
      <path
         inkscape:connector-curvature="0"
         id="path4036-7-2"
         d="m 530.8125,237.36218 0,-9 2.5,-4 5,0 2.5,4 0,9 z"
         style="fill:#bbbbbb;fill-opacity:1;stroke:#bbbbbb;stroke-width:1.11803412px;stroke-linecap:butt;stroke-linejoin:bevel;stroke-opacity:1" />
    </g>
    <path
       style="fill:#003b92;fill-opacity:1;stroke:none"
       d="m 264.70589,753.01574 c -6.53595,-19.60784 -20.09184,-36.5836 -45.75164,-52.28758 l 22.87582,-13.0719 -6.53594,-13.07189 9.80391,6.53594 9.80393,-2.61437 29.41176,-0.6536 22.22223,8.49673 3.26797,6.53595 -7.18955,16.99346 -1.96078,0 -0.65359,-11.7647 -19.60785,0 -5.88235,9.15033 0,19.60784 3.26798,6.53595 7.84313,3.26797 11.76471,6.53595 -19.60784,3.26797 z"
       id="path3984"
       inkscape:connector-curvature="0"
       sodipodi:nodetypes="cccccccccccccccccccc" />
    <path
       style="fill:#bbbbbb;fill-opacity:1;stroke:none"
       d="m 298.03922,743.21182 1.30719,-3.92157 0.6536,-15.68628 5.88235,-0.65359 -3.26798,-13.0719 -1.96078,0 -0.65359,-11.7647 -19.60785,0 -5.88235,9.15033 0,19.60784 3.26798,6.53595 8.49673,3.92156 z"
       id="path3994"
       inkscape:connector-curvature="0" />
    <path
       id="path4267"
       style="fill:#003b92;fill-opacity:1;stroke:#003b92;stroke-width:1.10267413;stroke-linecap:butt;stroke-linejoin:bevel;stroke-miterlimit:4;stroke-opacity:1;stroke-dasharray:none"
       d="m 205.69303,693.19457 c 1.88279,-4.0195 3.502,-8.06022 6.72528,-11.97175 6.8528,-1.98068 10.95873,-1.34823 15.34735,-1.02658 0.5156,0.0379 1.03513,0.0713 1.56343,0.0958 -0.0616,0.42273 -0.13301,0.83982 -0.21361,1.25179 -0.90562,4.62842 -2.96287,8.60818 -5.00378,12.64842 -7.45964,0.18862 -15.38374,0.5606 -18.41867,-0.99764 z"
       inkscape:connector-curvature="0"
       sodipodi:nodetypes="ccscscc" />
    <text
       xml:space="preserve"
       style="font-size:20.82670212px;font-style:normal;font-weight:normal;line-height:125%;letter-spacing:0px;word-spacing:0px;fill:#003b92;fill-opacity:1;stroke:none;font-family:Sans"
       x="127.45098"
       y="926.21838"
       id="text4174"
       sodipodi:linespacing="125%"><tspan
         sodipodi:role="line"
         id="tspan4176"
         x="127.45098"
         y="926.21838"
         style="font-style:normal;font-variant:normal;font-weight:normal;font-stretch:normal;fill:#003b92;fill-opacity:1;font-family:FreeSans;-inkscape-font-specification:FreeSans">CREAR TECNOLOGÍA ES</tspan><tspan
         sodipodi:role="line"
         x="127.45098"
         y="952.25177"
         id="tspan4178"
         style="font-style:normal;font-variant:normal;font-weight:normal;font-stretch:normal;fill:#003b92;fill-opacity:1;font-family:FreeSans;-inkscape-font-specification:FreeSans">    FORJAR LIBERTAD</tspan></text>
  </g>
</svg>
