<?xml version="1.0" encoding="UTF-8" standalone="no"?>
<!-- Created with Inkscape (http://www.inkscape.org/) -->

<svg
   xmlns:dc="http://purl.org/dc/elements/1.1/"
   xmlns:cc="http://creativecommons.org/ns#"
   xmlns:rdf="http://www.w3.org/1999/02/22-rdf-syntax-ns#"
   xmlns:svg="http://www.w3.org/2000/svg"
   xmlns="http://www.w3.org/2000/svg"
   xmlns:sodipodi="http://sodipodi.sourceforge.net/DTD/sodipodi-0.dtd"
   xmlns:inkscape="http://www.inkscape.org/namespaces/inkscape"
   width="907"
   height="107"
   id="svg2"
   version="1.1"
   inkscape:version="0.48.3.1 r9886"
   sodipodi:docname="ProgressBar.svg"
   inkscape:export-filename="/home/rafa/pictures/clipart/ProgressBar.png"
   inkscape:export-xdpi="90"
   inkscape:export-ydpi="90">
  <defs
     id="defs4" />
  <sodipodi:namedview
     id="base"
     pagecolor="#ffffff"
     bordercolor="#666666"
     borderopacity="1.0"
     inkscape:pageopacity="0.0"
     inkscape:pageshadow="2"
     inkscape:zoom="0.98994948"
     inkscape:cx="570.46613"
     inkscape:cy="101.92799"
     inkscape:document-units="px"
     inkscape:current-layer="layer1"
     showgrid="false"
     inkscape:window-width="1920"
     inkscape:window-height="1025"
     inkscape:window-x="0"
     inkscape:window-y="0"
     inkscape:window-maximized="1">
    <inkscape:grid
       type="xygrid"
       id="grid3766"
       empspacing="5"
       visible="true"
       enabled="true"
       snapvisiblegridlinesonly="true" />
  </sodipodi:namedview>
  <metadata
     id="metadata7">
    <rdf:RDF>
      <cc:Work
         rdf:about="">
        <dc:format>image/svg+xml</dc:format>
        <dc:type
           rdf:resource="http://purl.org/dc/dcmitype/StillImage" />
        <dc:title></dc:title>
      </cc:Work>
    </rdf:RDF>
  </metadata>
  <g
     inkscape:label="Layer 1"
     inkscape:groupmode="layer"
     id="layer1"
     transform="translate(0,-945.36218)">
    <flowRoot
       xml:space="preserve"
       id="flowRoot4009"
       style="font-size:40px;font-style:normal;font-weight:normal;line-height:125%;letter-spacing:0px;word-spacing:0px;fill:#000000;fill-opacity:1;stroke:none;font-family:Sans"><flowRegion
         id="flowRegion4011"><rect
           id="rect4013"
           width="1244.5079"
           height="303.04578"
           x="-164.65486"
           y="-77.284325" /></flowRegion><flowPara
         id="flowPara4015" /></flowRoot>    <g
       id="g3001"
       transform="translate(-56.936856,17.53228)">
      <path
         inkscape:connector-curvature="0"
         id="path2985-5"
         d="m 110.28061,933.6112 c -26.425174,0 -47.843754,21.44983 -47.843754,47.875 0,26.4251 21.41858,47.8437 47.843754,47.8437 18.38124,0 34.3302,-10.3896 42.34375,-25.5938 l 115.3125,0 c 8.01355,15.2042 23.96251,25.5938 42.34375,25.5938 18.38124,0 34.3302,-10.3896 42.34375,-25.5938 l 115.3125,0 c 8.01355,15.2042 23.96251,25.5938 42.34375,25.5938 18.38124,0 34.3302,-10.3896 42.34375,-25.5938 l 115.3125,0 c 8.01355,15.2042 23.96251,25.5938 42.34375,25.5938 18.38124,0 34.3302,-10.3896 42.34375,-25.5938 l 115.3125,0 c 8.01355,15.2042 23.96251,25.5938 42.34375,25.5938 26.42517,0 47.84375,-21.4186 47.84375,-47.8437 0,-26.42517 -21.41858,-47.875 -47.84375,-47.875 -18.38124,0 -34.3302,10.3896 -42.34375,25.59375 l -115.3125,0 c -8.01355,-15.20415 -23.96251,-25.59375 -42.34375,-25.59375 -18.38124,0 -34.3302,10.3896 -42.34375,25.59375 l -115.3125,0 c -8.01355,-15.20415 -23.96251,-25.59375 -42.34375,-25.59375 -18.38124,0 -34.3302,10.3896 -42.34375,25.59375 l -115.3125,0 c -8.01355,-15.20415 -23.96251,-25.59375 -42.34375,-25.59375 -18.38124,0 -34.3302,10.3896 -42.34375,25.59375 l -115.3125,0 C 144.61081,944.0008 128.66185,933.6112 110.28061,933.6112 z"
         style="fill:#e6e6e6;fill-opacity:1;stroke:#d8d8d8;stroke-width:10;stroke-miterlimit:4;stroke-opacity:1;stroke-dasharray:none" />
      <path
         transform="matrix(0.78069118,0,0,0.78069117,-9.8413508,659.56199)"
         d="m 210.11174,412.93561 c 0,30.68405 -24.87434,55.55839 -55.5584,55.55839 -30.68405,0 -55.558387,-24.87434 -55.558387,-55.55839 0,-30.68405 24.874337,-55.55839 55.558387,-55.55839 30.68406,0 55.5584,24.87434 55.5584,55.55839 z"
         sodipodi:ry="55.558392"
         sodipodi:rx="55.558392"
         sodipodi:cy="412.93561"
         sodipodi:cx="154.55334"
         id="path2985-50"
         style="fill:#0083d7;fill-opacity:1;stroke:#d8d8d8;stroke-width:9.28934288;stroke-miterlimit:4;stroke-opacity:0;stroke-dasharray:none"
         sodipodi:type="arc" />
      <text
         sodipodi:linespacing="125%"
         id="text3927"
         y="999.20496"
         x="94.326607"
         style="font-size:53.37999344px;font-style:normal;font-weight:normal;line-height:125%;letter-spacing:0px;word-spacing:0px;fill:#000000;fill-opacity:1;stroke:none;font-family:Sans"
         xml:space="preserve"><tspan
           style="font-style:normal;font-variant:normal;font-weight:bold;font-stretch:normal;fill:#ffffff;fill-opacity:1;font-family:Cantarell;-inkscape-font-specification:Cantarell Bold"
           y="999.20496"
           x="94.326607"
           id="tspan3929"
           sodipodi:role="line">1</tspan></text>
      <path
         transform="matrix(0.78069118,0,0,0.78069117,189.60878,659.72262)"
         d="m 210.11174,412.93561 c 0,30.68405 -24.87434,55.55839 -55.5584,55.55839 -30.68405,0 -55.558387,-24.87434 -55.558387,-55.55839 0,-30.68405 24.874337,-55.55839 55.558387,-55.55839 30.68406,0 55.5584,24.87434 55.5584,55.55839 z"
         sodipodi:ry="55.558392"
         sodipodi:rx="55.558392"
         sodipodi:cy="412.93561"
         sodipodi:cx="154.55334"
         id="path2985-50-4"
         style="fill:#0083d7;fill-opacity:1;stroke:#d8d8d8;stroke-width:9.28934288;stroke-miterlimit:4;stroke-opacity:0;stroke-dasharray:none"
         sodipodi:type="arc" />
      <path
         transform="matrix(0.78069118,0,0,0.78069117,389.97368,659.40259)"
         d="m 210.11174,412.93561 c 0,30.68405 -24.87434,55.55839 -55.5584,55.55839 -30.68405,0 -55.558387,-24.87434 -55.558387,-55.55839 0,-30.68405 24.874337,-55.55839 55.558387,-55.55839 30.68406,0 55.5584,24.87434 55.5584,55.55839 z"
         sodipodi:ry="55.558392"
         sodipodi:rx="55.558392"
         sodipodi:cy="412.93561"
         sodipodi:cx="154.55334"
         id="path2985-50-4-2"
         style="fill:#0083d7;fill-opacity:1;stroke:#d8d8d8;stroke-width:9.28934288;stroke-miterlimit:4;stroke-opacity:0;stroke-dasharray:none"
         sodipodi:type="arc" />
      <text
         sodipodi:linespacing="125%"
         id="text3927-6"
         y="999.20496"
         x="293.70044"
         style="font-size:53.37999344px;font-style:normal;font-weight:normal;line-height:125%;letter-spacing:0px;word-spacing:0px;fill:#000000;fill-opacity:1;stroke:none;font-family:Sans"
         xml:space="preserve"><tspan
           style="font-style:normal;font-variant:normal;font-weight:bold;font-stretch:normal;fill:#ffffff;fill-opacity:1;font-family:Cantarell;-inkscape-font-specification:Cantarell Bold"
           y="999.20496"
           x="293.70044"
           id="tspan3929-6"
           sodipodi:role="line">2</tspan></text>
      <text
         sodipodi:linespacing="125%"
         id="text3927-1"
         y="998.03058"
         x="494.21576"
         style="font-size:53.37999344px;font-style:normal;font-weight:normal;line-height:125%;letter-spacing:0px;word-spacing:0px;fill:#000000;fill-opacity:1;stroke:none;font-family:Sans"
         xml:space="preserve"><tspan
           style="font-style:normal;font-variant:normal;font-weight:bold;font-stretch:normal;fill:#ffffff;fill-opacity:1;font-family:Cantarell;-inkscape-font-specification:Cantarell Bold"
           y="998.03058"
           x="494.21576"
           id="tspan3929-8"
           sodipodi:role="line">3</tspan></text>
      <text
         sodipodi:linespacing="125%"
         id="text3927-1-3"
         y="999.2052"
         x="691.97296"
         style="font-size:53.37999344px;font-style:normal;font-weight:normal;line-height:125%;letter-spacing:0px;word-spacing:0px;fill:#505050;fill-opacity:1;stroke:none;font-family:Sans"
         xml:space="preserve"><tspan
           style="font-style:normal;font-variant:normal;font-weight:bold;font-stretch:normal;fill:#505050;fill-opacity:1;font-family:Cantarell;-inkscape-font-specification:Cantarell Bold"
           y="999.2052"
           x="691.97296"
           id="tspan3929-8-4"
           sodipodi:role="line">4</tspan></text>
      <text
         sodipodi:linespacing="125%"
         id="text3927-1-4"
         y="998.67139"
         x="894.97302"
         style="font-size:53.37999344px;font-style:normal;font-weight:normal;line-height:125%;letter-spacing:0px;word-spacing:0px;fill:#505050;fill-opacity:1;stroke:none;font-family:Sans"
         xml:space="preserve"><tspan
           style="font-style:normal;font-variant:normal;font-weight:bold;font-stretch:normal;fill:#505050;fill-opacity:1;font-family:Cantarell;-inkscape-font-specification:Cantarell Bold"
           y="998.67139"
           x="894.97302"
           id="tspan3929-8-3"
           sodipodi:role="line">5</tspan></text>
    </g>
  </g>
</svg>
