<?xml version="1.0" encoding="UTF-8" standalone="no"?>
<svg
   xmlns:dc="http://purl.org/dc/elements/1.1/"
   xmlns:cc="http://creativecommons.org/ns#"
   xmlns:rdf="http://www.w3.org/1999/02/22-rdf-syntax-ns#"
   xmlns:svg="http://www.w3.org/2000/svg"
   xmlns="http://www.w3.org/2000/svg"
   xmlns:sodipodi="http://sodipodi.sourceforge.net/DTD/sodipodi-0.dtd"
   xmlns:inkscape="http://www.inkscape.org/namespaces/inkscape"
   width="502"
   height="284.19724"
   id="svg2"
   version="1.1"
   inkscape:version="0.48.3.1 r9886"
   sodipodi:docname="sep_tecnologicos.svg"
   inkscape:export-filename="/home/ddc/sep_tecnologicos.png"
   inkscape:export-xdpi="90"
   inkscape:export-ydpi="90">
  <metadata
     id="metadata30936">
    <rdf:RDF>
      <cc:Work
         rdf:about="">
        <dc:format>image/svg+xml</dc:format>
        <dc:type
           rdf:resource="http://purl.org/dc/dcmitype/StillImage" />
        <dc:title></dc:title>
      </cc:Work>
    </rdf:RDF>
  </metadata>
  <defs
     id="defs30934" />
  <sodipodi:namedview
     pagecolor="#c0c0c0"
     bordercolor="#666666"
     borderopacity="1"
     objecttolerance="10"
     gridtolerance="10"
     guidetolerance="10"
     inkscape:pageopacity="1"
     inkscape:pageshadow="2"
     inkscape:window-width="1920"
     inkscape:window-height="1023"
     id="namedview30932"
     showgrid="false"
     fit-margin-top="1"
     fit-margin-right="1"
     fit-margin-bottom="1"
     fit-margin-left="1"
     inkscape:zoom="2"
     inkscape:cx="357.72815"
     inkscape:cy="127.16234"
     inkscape:window-x="0"
     inkscape:window-y="0"
     inkscape:window-maximized="1"
     inkscape:current-layer="svg2" />
  <path
     style="fill:#013997;stroke:none"
     d="M 446.375 112.65625 C 437.66366 112.57761 428.97785 114.6954 421.25 118.875 C 415.28389 122.1014 409.57122 126.155 405.46875 131.625 C 401.34723 137.1197 398.73594 143.54155 394.8125 149.15625 C 392.31273 152.73305 389.27504 155.63865 385.8125 158.28125 C 373.98693 167.30325 360.19348 174.1875 345.0625 174.1875 L 333.4375 173.53125 C 332.34712 173.51925 330.14027 173.1255 329.78125 174.5625 C 329.36606 176.2233 331.56337 177.52885 332.59375 178.46875 C 335.96201 181.54275 339.54082 184.44255 343.25 187.09375 C 356.6221 196.65385 372.75015 202.5002 389.15625 198.0625 C 391.89028 197.3226 393.99357 195.84185 396.5 194.65625 C 400.02729 203.12685 405.82667 210.87299 413.625 215.8125 C 421.16525 220.5882 429.99731 222.27145 438.78125 222.65625 C 451.58102 223.21615 464.1141 220.91595 474.875 213.59375 C 495.29025 199.70074 504.15613 171.7508 495.875 148.5625 C 492.86194 140.1252 487.7385 132.6162 481.15625 126.5625 C 473.9255 119.9136 464.73969 115.2446 455.0625 113.5 C 452.18562 112.981 449.27878 112.68246 446.375 112.65625 z M 445.4375 114.90625 C 450.39958 114.85813 455.3699 115.49135 460.09375 117.03125 C 466.60457 119.15295 472.6296 122.32675 477.90625 126.71875 C 482.31155 130.38405 486.06546 134.76261 489.09375 139.625 C 500.75648 158.35001 498.53657 183.4478 485.21875 200.75 C 481.36006 205.7629 476.57956 210.02735 471.15625 213.28125 C 462.04472 218.74845 452.0907 220.46875 441.625 220.46875 C 430.98884 220.46875 420.31415 218.33815 411.71875 211.71875 C 407.13537 208.18955 403.28725 203.3509 400.6875 198.1875 L 398.40625 193.625 C 397.97772 192.9632 397.41653 192.415 396.59375 192.375 C 395.76145 192.3359 394.95452 192.92665 394.28125 193.34375 C 393.15088 194.04465 392.02019 194.6961 390.78125 195.1875 C 387.35491 196.5464 383.46454 197.0621 379.8125 197.3125 C 366.14805 198.2486 353.33794 191.8638 342.6875 183.875 L 336.03125 178.5 C 335.03325 177.6448 333.74868 176.77775 332.96875 175.71875 C 339.88621 176.59255 347.21993 176.908 354.125 175.75 C 363.45175 174.1863 372.16115 170.0944 380.09375 165.0625 C 384.60095 162.2047 389.31575 158.95276 392.96875 155.03125 C 399.08056 148.47085 402.04562 139.81699 407.4375 132.75 C 410.18486 129.1494 413.59172 126.34545 417.34375 123.84375 C 424.20216 119.27185 432.21332 115.95615 440.46875 115.15625 C 442.10598 114.9977 443.78347 114.92229 445.4375 114.90625 z "
     id="path6976" />
  <path
     style="fill:#013997;stroke:none"
     d="m 78.230687,122.95406 c -0.76507,-2.1026 -2.14399,-4.1263 -3.20837,-6.0946 l -6.57081,-12.2846 -19.23632,-35.9967 c -1.12999,-2.0893 -2.45129,-4.3937 -2.38549,-6.8565 0.13227,-4.9434 5.59529,-8.1847 10.16487,-7.1528 3.31788,0.7492 4.64766,3.2831 6.23028,6.0101 l 2.80221,4.7614 17.86254,30.378201 46.486733,79.040199 13.09974,22.3789 c 3.35016,6.0061 6.29846,12.537 10.78852,17.8079 1.98934,2.335 4.50434,4.5091 7.57739,5.1967 2.73308,0.6123 5.69471,0.1133 8.47541,0.2352 6.86507,0.3009 13.78824,0.091 20.66475,0.091 l 76.75478,0.2857 23.04548,0.095 6.76128,0 c 1.5389,0 3.07019,0.1 4.571,-0.3009 8.58873,-2.2893 14.48342,-11.0133 16.0747,-19.3163 1.09609,-5.7166 1.1618,-11.6266 1.1618,-17.427 l -0.19141,-18.8554 c -0.0952,-3.8815 -0.26093,-7.8259 -0.0905,-11.7132 0.11523,-2.6264 0.22284,-5.3195 0.75803,-7.904 0.23807,-1.1475 0.51423,-2.4541 1.34178,-3.3321 1.457,-1.5446 3.90059,-2.4912 5.80041,-3.3635 4.63576,-2.1283 9.16486,-4.2243 10.58188,-9.5886 2.2874,-8.6602 1.65032,-18.0907 1.60747,-26.9499 -0.0733,-15.2795 -0.56376,-30.6108 -0.18951,-45.9005 0.21426,-8.7406 -0.28474,-17.5455 0.0981,-26.2833 l 0.0914,-11.8084 c 0,-2.5509 0.22664,-5.207 -0.32569,-7.7136 -1.21131,-5.4912997 -6.15943,-9.0873997 -11.6732,-9.3286997 -4.42531,-0.19370005 -7.48216,1.8 -11.14183,3.9959 l -10.0943,6.0755997 -40.85335,24.6454 -12.09412,7.2935 c -2.24169,1.3734 -4.72622,2.5307 -6.37845,4.6482 -2.09505,2.6846 -2.24456,6.1831 -2.38645,9.4277 -0.20093,4.5867 -0.28188,9.2155 -0.28188,13.8082 0,1.7842 0.003,3.5699 0.3095,5.3329 0.14189,0.814 0.32568,1.763 0.94658,2.3603 1.09704,1.0565 2.7626,-0.2148 3.79108,-0.7708 l 9.90384,-5.2798 c 12.45408,-6.2719 24.41583,-13.4162 37.23464,-18.9475 3.4892,-1.5055 8.93155,-5.3313 12.16078,-1.5504 l 0.88468,1.4284 c 0.31425,0.7446 0.56947,1.5733 0.65136,2.3807 0.29331,2.8834 -0.65422,6.0164 -2.76164,8.0674 -1.52939,1.4885 -3.59491,2.4603 -5.41188,3.5506 l -8.47541,5.0662 -37.04418,22.150301 -11.52274,6.875599 c -1.81793,1.0903 -4.07867,2.0626 -5.61853,3.5273 -2.92734,2.7845 -6.07181,7.2898 -6.8746,11.3284 -0.35235,1.7732 0.0314,3.8263 0.10952,5.6186 l 0.19331,10.1895 c 0.33807,13.8349 9.5e-4,27.6831 9.5e-4,41.52 l 0,11.8084 c 0,1.3275 0.43425,3.6015 -0.28473,4.7614 -0.68565,1.1047 -2.04362,1.5923 -3.23875,1.8922 -2.84831,0.7162 -6.20228,0.5276 -9.04678,-0.1447 -3.48444,-0.8247 -4.5891,-4.5529 -5.25761,-7.6517 -0.67136,-3.1111 -0.36091,-6.4498 -0.36091,-9.6181 l -0.0952,-14.8558 -0.28569,-69.136399 -0.0952,-20.569601 c 0,-3.2637 0.6247,-7.2788 -0.55328,-10.3799 -2.44263,-6.4288 -10.48855,-8.8564 -16.77845,-8.8564 -15.01194,0 -30.27909,2.2255 -45.2339,0.2589 -3.37778,-0.4443 -7.57358,-0.8466 -10.28476,-3.0791 -1.53319,-1.2624 -2.63213,-2.936 -3.93201,-4.4172 -1.43415,-1.6354 -2.9902,-3.0424 -4.22532,-4.8567 -2.77594,-4.0799 -5.11286,-8.3384 -10.03145,-10.1233 -1.0361,-0.376 -2.15123,-0.2567 -3.2378,-0.2567 l -5.5233,0 -19.141083,0.094 c -7.79822,0.191 -15.6255,0 -23.42639,0 l -38.09171,0.095 -20.28383,0 c -2.78078,0 -6.5063095,-0.6601 -8.9515495,0.9236 -3.21441002,2.082 -2.21084,7.1368 -1.44049,10.2182 2.25433,9.0174 7.10781,17.4209 11.5127895,25.5215 5.8048,10.6747 12.08355,21.057 17.7555,31.806501 4.80203,9.101099 9.7131,19.300099 19.50114,23.923499 3.43283,1.6218 7.03106,2.0179 10.76091,2.2731 5.33388,0.3657 10.77986,-0.066 16.09374,-0.4847 z"
     id="path12"
     inkscape:connector-curvature="0" />
  <path
     style="fill:#013997;stroke:none"
     d="M 444.25 129.125 C 438.45479 129.13709 432.548 131.90542 430.25 137.53125 C 429.51293 139.33585 429.34375 141.1332 429.34375 143.0625 C 428.0153 142.1664 426.6395 141.33635 425.0625 140.96875 C 416.17761 138.89375 408.79584 146.8223 408.21875 155.25 C 407.91783 159.6439 409.48823 164.151 412.78125 167.125 C 413.7983 168.044 414.92338 168.5834 416.09375 169.25 C 414.64626 169.6605 413.32697 170.2574 412.09375 171.125 C 404.87061 176.2064 406.35047 187.28615 412.09375 192.84375 C 415.76008 196.39105 421.09136 198.24 426.09375 196.8125 C 427.68789 196.3573 428.84519 195.38855 430.28125 194.65625 C 430.32125 199.46055 434.73539 203.5315 438.875 205.1875 C 446.94378 208.4148 457.84612 204.6119 459.625 195.4375 C 465.33971 200.697 474.15011 198.8904 478.46875 192.75 C 482.39125 187.1743 482.97379 178.8389 478.34375 173.4375 C 476.94959 171.811 475.34114 170.80705 473.4375 169.90625 C 481.80244 167.17975 483.5532 157.2268 479.625 150.1875 C 476.49862 144.5861 469.86643 140.87055 463.4375 142.34375 C 461.64243 142.75515 460.19974 143.66015 458.6875 144.65625 C 460.414 137.64645 454.85545 131.0566 448.1875 129.5625 C 446.90887 129.27574 445.58736 129.12221 444.25 129.125 z M 444.5625 138.40625 C 448.03602 138.38518 451.52663 139.99316 453.6875 143.0625 C 455.30163 145.3556 455.71875 147.92035 455.71875 150.65625 C 458.44612 149.73555 461.3012 149.591 464 150.75 C 471.1679 153.8288 472.72611 163.60415 467.34375 169.03125 C 468.47603 169.73595 469.45406 170.7212 470.21875 171.8125 C 474.46503 177.8758 471.70618 186.82125 464.46875 188.96875 C 463.27553 189.32155 462.01257 189.43375 460.78125 189.34375 C 459.27663 189.23425 457.91095 188.8769 456.5625 188.1875 C 456.53489 189.5397 456.06679 190.89665 455.46875 192.09375 C 452.77091 197.48945 445.82349 199.78985 440.46875 196.90625 C 438.28038 195.72735 436.68032 193.93185 435.59375 191.71875 C 434.95572 190.42075 434.59775 188.886 434.59375 187.4375 C 428.56669 190.9553 420.92501 187.2418 419.09375 180.75 C 418.22717 177.6779 418.82785 174.0506 420.65625 171.4375 C 421.20096 170.6585 421.90323 169.6595 422.78125 169.25 C 422.37462 168.3949 421.32345 167.76825 420.71875 167.03125 C 419.536 165.58845 418.74604 163.8379 418.4375 162 C 417.47473 156.2729 420.94127 150.21275 426.875 149.09375 C 429.36239 148.62435 431.36564 149.26255 433.71875 149.90625 C 433.71875 146.73705 434.74748 143.72095 437.0625 141.46875 C 439.16106 139.42646 441.86088 138.42264 444.5625 138.40625 z "
     id="path8622" />
  <path
     style="fill:#013997;stroke:none"
     d="m 4.90417,209.61194 c -1.126495,3.3301 -2.88357,6.5127 -3.80917,9.9038 5.104174,2.3874 10.5774,3.5235 16.188975,3.5235 2.524146,0 5.090385,-0.1067 7.523111,-0.8599 2.448249,-0.7571 4.742989,-1.9418 6.448069,-3.9016 3.407969,-3.9168 3.773173,-10.6342 1.331305,-15.1414 -2.882876,-5.3214 -8.58968,-6.907 -13.683588,-9.3116 -1.497099,-0.7066 -4.441588,-2.0779 -3.829264,-4.211 0.491288,-1.7113 2.442821,-1.8703 3.924493,-1.8055 3.705466,0.1619 6.808607,1.7636 10.28476,2.7578 l 1.944963,-5.1424 1.388062,-3.8091 c -2.099806,-1.2257 -4.66871,-1.817 -7.046966,-2.2141 -7.776897,-1.298 -19.053994,-1.6199 -22.188123,7.5469 -0.422275,1.2351 -0.6669,2.5026 -0.6669,3.8092 0,1.5122 0.105657,3.0178 0.544855,4.4757 1.489309,4.9434 6.254496,7.6527 10.692198,9.5782 2.265695,0.9828 5.097432,1.8427 6.847651,3.6625 1.555856,1.618 0.932771,3.9054 -1.229124,4.4825 -2.66261,0.7123 -5.69871,-0.2534 -8.284946,-0.9276 l -6.380361,-2.4159 z"
     id="path14090"
     inkscape:connector-curvature="0" />
  <path
     style="fill:#013997;stroke:none"
     d="M 42.21875 180 L 42.21875 222.09375 L 70.8125 222.09375 L 70.8125 212.5625 L 53.9375 212.5625 L 53.9375 205.125 L 66.21875 205.125 L 66.21875 195.8125 L 53.9375 195.8125 L 53.9375 189.34375 L 68.90625 189.34375 L 68.90625 180 L 42.21875 180 z M 81.09375 180 L 81.09375 222.09375 L 92.90625 222.09375 L 92.90625 209.90625 C 97.69152 209.90625 102.24155 209.28895 106.125 206.21875 C 112.56536 201.12785 114.15269 190.15785 107.84375 184.28125 C 103.42607 180.16645 97.70501 180 92.03125 180 L 81.09375 180 z M 94.15625 189.09375 C 95.484658 189.04592 96.932593 189.05738 97.9375 189.84375 C 100.44584 191.80735 100.19496 197.7302 97.84375 199.75 C 96.405788 200.9852 94.677514 200.84375 92.90625 200.84375 L 92.90625 189.125 C 93.30257 189.125 93.713447 189.10969 94.15625 189.09375 z "
     id="path14316" />
  <path
     style="fill:#013997;stroke:none"
     d="m 372.67981,239.2291 1.65127,2.4759 c 0.17427,0.2543 0.40092,0.7066 0.73803,0.7628 0.7266,0.119 2.21979,-1.0342 2.8483,-1.3894 l 7.33266,-3.9444 c -0.67899,-1.3656 -1.72365,-2.654 -2.59786,-3.9044 -0.21331,-0.3057 -0.6028,-1.2084 -1.02942,-1.2199 -0.67994,-0.018 -1.95411,1.4513 -2.4674,1.8789 l -6.47558,5.3405 z"
     id="path20726"
     inkscape:connector-curvature="0" />
  <path
     style="fill:#d8e1ef;stroke:none"
     d="m 354.39579,232.8487 0,35.4253 c 0.31521,-0.7504 0.0952,-1.9494 0.0952,-2.7617 l 0,-6.0946 0,-18.7602 0,-5.4281 c 0,-0.7123 0.18093,-1.7217 -0.0952,-2.3807 z"
     id="path20754"
     inkscape:connector-curvature="0" />
  <path
     style="fill:#013997;stroke:none"
     d="m 354.49102,232.8487 0,35.4253 6.47559,0 0,-35.4253 -6.47559,0 z"
     id="path20756"
     inkscape:connector-curvature="0" />
  <path
     style="fill:#184ba0;stroke:none"
     d="m 360.96661,232.8487 0,35.4253 c 0.3152,-0.7504 0.0952,-1.9494 0.0952,-2.7617 l 0,-6.0946 0,-18.7602 0,-5.4281 c 0,-0.7123 0.18093,-1.7217 -0.0952,-2.3807 z"
     id="path20758"
     inkscape:connector-curvature="0" />
  <path
     style="fill:#013997;stroke:none"
     d="m 91.086881,233.6515 c -2.63566,0.378 -4.296268,3.4882 -2.520814,5.768 0.844874,1.0847 2.440536,1.4808 3.758794,1.2923 0.675176,-0.096 1.328925,-0.2533 1.904585,-0.6352 1.804404,-1.1999 1.942582,-4.0511 0.379489,-5.5043 -0.908011,-0.8437 -2.322927,-1.0932 -3.522054,-0.9208 z"
     id="path20790"
     inkscape:connector-curvature="0" />
  <path
     style="fill:#013997;stroke:none"
     d="m 424.77021,233.6515 c -2.5769,0.3695 -4.34341,3.3397 -2.64547,5.6642 0.85326,1.1675 2.50263,1.5941 3.88345,1.3961 2.81498,-0.4028 4.63862,-3.7787 2.37216,-6.0452 -0.90658,-0.9056 -2.37502,-1.1923 -3.61014,-1.0151 z"
     id="path20800"
     inkscape:connector-curvature="0" />
  <path
     style="fill:#4870b4;stroke:none"
     d="m 2.4284389,236.4674 0,31.8066 c 0.2571857,-0.6133 0.095229,-1.5285 0.095229,-2.1903 l 0,-4.8567 0,-16.8556 0,-5.428 c 0,-0.7371 0.1908585,-1.7942 -0.095229,-2.476 z"
     id="path20996"
     inkscape:connector-curvature="0" />
  <path
     style="fill:#013997;stroke:none"
     d="m 2.5236682,236.4674 0,31.8066 6.7612775,0 0,-31.8066 -6.7612775,0 z"
     id="path20998"
     inkscape:connector-curvature="0" />
  <path
     style="fill:#013997;stroke:none"
     d="m 227.45518,236.4674 0,5.6185 9.33247,0 0,26.1881 6.76128,0 0,-19.4268 0,-4.8567 c 0,-0.4371 -0.18189,-1.4179 0.15236,-1.7522 0.40949,-0.4085 1.86935,-0.1524 2.41883,-0.1524 l 6.95173,0 0,-5.6185 -25.61667,0 z"
     id="path21004"
     inkscape:connector-curvature="0" />
  <path
     style="fill:#013997;stroke:none"
     d="m 110.0375,239.4195 -7.04696,6.6661 c -0.77136,0.7704 -2.40549,1.7446 -2.79974,2.7654 -0.213315,0.5552 -0.0571,1.4056 -0.0571,1.996 l 3.52348,0 0,8.3802 c 0,1.5532 -0.19236,3.2511 0.23141,4.7615 0.83516,2.9778 3.43873,4.6424 6.43464,4.8481 1.25131,0.086 2.58357,-0.07 3.80917,-0.3152 1.90363,-0.3809 3.55967,-1.2237 5.33284,-1.9617 l -1.80936,-4.4758 c -1.96553,0.3495 -4.06628,2.195 -6.1899,1.416 -1.33511,-0.4904 -1.33321,-2.0417 -1.33321,-3.2254 l 0,-9.4277 7.1422,0 0,-4.2853 -7.1422,0 0,-4.9519 c 0,-0.6619 0.16189,-1.577 -0.0952,-2.1903 z"
     id="path21164"
     inkscape:connector-curvature="0" />
  <path
     style="fill:#013997;stroke:none"
     d="m 63.851312,250.847 3.523483,0 0,9.0468 c 0,2.7121 0.0458,5.3947 2.285502,7.3041 2.810977,2.3969 7.155146,1.8122 10.37999,0.7266 0.691459,-0.2324 2.687274,-0.7314 3.034766,-1.4018 0.169222,-0.3266 -0.187031,-0.8999 -0.313495,-1.2008 l -1.388062,-3.2378 c -1.824688,0.499 -4.111809,2.1474 -6.094673,1.4313 -1.301117,-0.4695 -1.427962,-2.057 -1.428438,-3.2407 l 0,-9.4277 7.142194,0 0,-4.2853 -7.142194,0 0,-7.047 c -1.163892,0.5428 -2.21389,1.9656 -3.142566,2.8531 l -4.951922,4.6701 c -0.562043,0.5589 -1.446342,1.0884 -1.806689,1.8093 -0.264547,0.5295 -0.0979,1.4189 -0.0979,1.9998 z"
     id="path21174"
     inkscape:connector-curvature="0" />
  <path
     style="fill:#013997;stroke:none"
     d="m 149.36719,250.847 3.52348,0 0,9.0468 c 0,2.7121 0.0457,5.3947 2.2855,7.3041 2.81117,2.3969 7.15553,1.8122 10.37999,0.7266 0.69137,-0.2324 2.68737,-0.7314 3.03496,-1.4018 0.16856,-0.3266 -0.1876,-0.8999 -0.3133,-1.2008 l -1.38845,-3.2378 c -1.80745,0.4942 -4.23484,2.2245 -6.1899,1.4065 -1.25512,-0.5247 -1.33321,-2.1465 -1.33321,-3.3111 l 0,-9.3325 7.1422,0 0,-4.2853 -7.1422,0 0,-7.047 c -1.1637,0.5428 -2.21408,1.9656 -3.14256,2.8531 l -4.95193,4.6701 c -0.56185,0.5589 -1.44653,1.0884 -1.8065,1.8093 -0.26473,0.5295 -0.0981,1.4189 -0.0981,1.9998 z"
     id="path21182"
     inkscape:connector-curvature="0" />
  <path
     style="fill:#c8d5e9;stroke:none"
     d="m 236.69242,242.1812 0,26.0928 c 0.21808,-0.52 0.0952,-1.2485 0.0952,-1.8094 l 0,-3.9996 0,-13.713 0,-4.4758 c 0,-0.6371 0.15237,-1.5056 -0.0952,-2.095 z"
     id="path21418"
     inkscape:connector-curvature="0" />
  <path
     style="fill:#3763ad;stroke:none"
     d="m 243.54893,242.1812 0,26.0928 c 0.21807,-0.52 0.0952,-1.2485 0.0952,-1.8094 l 0,-3.9996 0,-13.713 0,-4.4758 c 0,-0.6371 0.15236,-1.5056 -0.0952,-2.095 z"
     id="path21420"
     inkscape:connector-curvature="0" />
  <path
     style="fill:#013997;stroke:none"
     d="m 24.521627,248.752 0,-2.1903 -6.285131,0 0,21.7123 6.47559,0 0,-10.7609 0,-3.0474 0.05742,-1.4084 c 0.213695,-0.4904 1.19608,-0.7095 1.656704,-0.8818 1.386823,-0.519 4.198372,-1.9322 5.478729,-0.6304 1.104469,1.1227 0.711173,3.3035 0.711173,4.73 l 0,11.9989 6.570819,0 0,-11.0466 c 0,-2.1522 0.236073,-4.4815 -0.384346,-6.5708 -1.108373,-3.733 -4.913925,-5.7747 -8.662434,-4.6625 -2.04762,0.6066 -3.754509,1.7656 -5.618527,2.7579 z"
     id="path21520"
     inkscape:connector-curvature="0" />
  <path
     style="fill:#013997;stroke:none"
     d="m 46.329128,261.7984 -1.604613,3.6187 c -0.135511,0.3162 -0.561091,0.9513 -0.382536,1.2961 0.158557,0.3057 0.737075,0.4466 1.034857,0.5656 l 3.142565,0.9828 c 4.388736,1.0656 11.260003,0.7752 12.852236,-4.4634 1.275025,-4.1948 -1.936201,-7.1365 -5.329124,-8.8325 -1.165225,-0.5828 -2.473199,-1.0256 -3.523388,-1.8103 -0.457862,-0.3428 -0.930009,-0.8323 -0.805258,-1.4513 0.228645,-1.1351 1.328162,-1.4542 2.328831,-1.3494 1.883635,0.199 3.316835,1.1008 5.047151,1.7303 0.688222,-1.4741 1.88992,-2.8293 2.380732,-4.3805 -3.091714,-1.2875 -6.301035,-2.4112 -9.713385,-1.8627 -4.256557,0.6837 -7.62434,4.2796 -5.921832,8.7192 0.942865,2.4588 3.418255,3.7244 5.636144,4.8328 1.061045,0.5305 2.333403,0.9914 3.110188,1.9294 0.772119,0.9332 0.302258,2.1826 -0.824685,2.5493 -1.292547,0.4199 -2.883066,-0.017 -4.094859,-0.4981 l -3.333024,-1.576 z"
     id="path21530"
     inkscape:connector-curvature="0" />
  <path
     style="fill:#013997;stroke:none"
     d="M 182.96875 245.6875 C 182.68113 245.68766 182.40236 245.71357 182.125 245.75 C 179.32622 246.1176 176.78212 246.5932 174.59375 248.5625 C 169.7961 252.8802 169.76468 261.7505 174.59375 266.0625 C 177.3135 268.4909 181.26348 269.13965 184.78125 268.71875 C 186.50109 268.51305 188.27966 267.9976 189.75 267.0625 C 198.25302 261.6573 195.58633 247.62295 185.5625 245.96875 C 184.739 245.83308 183.83162 245.68702 182.96875 245.6875 z M 183.25 250.5625 C 187.60753 250.70748 188.4767 256.436 187.625 259.90625 C 187.18218 261.70605 186.1391 263.575 184.125 263.875 L 182.21875 263.90625 C 178.61909 263.40725 177.80665 260.0058 177.84375 256.9375 C 177.87898 253.9349 179.049 251.02235 182.3125 250.59375 C 182.63449 250.55149 182.9595 250.55283 183.25 250.5625 z "
     id="path21544" />
  <path
     style="fill:#013997;stroke:none"
     d="m 199.74347,261.7984 -1.52367,3.6187 c -0.13618,0.32 -0.55138,0.9447 -0.36854,1.2961 0.15999,0.3057 0.73612,0.4466 1.03514,0.5656 l 2.95211,0.9352 c 4.0682,1.0113 9.98479,1.0218 12.43218,-3.0826 1.40178,-2.3522 0.97515,-5.509 -0.8304,-7.5231 -1.07799,-1.2018 -2.55976,-1.9779 -3.98344,-2.6902 -1.14275,-0.5714 -4.40054,-1.4694 -4.26341,-3.1188 0.22093,-2.6712 4.45958,-1.0761 5.78708,-0.4895 0.38473,0.1705 1.06942,0.7114 1.50367,0.6019 0.35521,-0.09 0.56376,-0.6847 0.7266,-0.9694 0.59518,-1.039 1.35987,-2.1132 1.76936,-3.2378 -3.28731,-1.3685 -6.67652,-2.4922 -10.28476,-1.7665 -4.16819,0.8389 -6.99554,4.6376 -5.28999,8.8134 0.98944,2.4208 3.5711,3.6406 5.76614,4.7377 0.96467,0.4828 2.10456,0.917 2.83688,1.7417 0.87801,0.9895 0.3971,2.2903 -0.83707,2.6588 -1.22846,0.3667 -2.64833,-0.03 -3.80917,-0.4428 -1.2037,-0.4295 -2.37692,-1.4246 -3.61871,-1.6484 z"
     id="path21556"
     inkscape:connector-curvature="0" />
  <path
     style="fill:#013997;stroke:none"
     d="M 260.5625 245.6875 C 258.79111 245.76879 257.01146 246.26944 255.4375 247.28125 C 249.38568 251.17135 248.61769 262.4425 254.5 266.8125 C 259.36907 270.4293 267.30026 269.02695 272.03125 265.90625 L 270.1875 262.84375 C 270.00751 262.55805 269.78318 261.95805 269.4375 261.84375 C 269.13181 261.74275 268.75522 262.0599 268.5 262.1875 L 266.03125 263.25 C 262.48492 264.568 258.44312 264.0559 257.4375 259.8125 C 260.19534 259.6944 263.00834 259.10885 265.75 258.78125 C 266.86799 258.64695 268.62033 258.72975 269.625 258.21875 C 270.29255 257.87785 271.47306 256.2056 271.71875 255.5 C 271.85207 255.1143 271.60764 254.65165 271.5 254.28125 C 271.1848 253.20325 270.75852 252.1249 270.25 251.125 C 268.38606 247.46001 264.45957 245.50866 260.5625 245.6875 z M 261.0625 250.0625 C 261.44671 250.0453 261.87147 250.11382 262.3125 250.25 C 263.64476 250.6614 264.27855 251.96455 264.59375 253.21875 C 264.67775 253.55205 264.93414 254.1886 264.6875 254.5 C 264.37134 254.9 263.16555 254.93625 262.6875 255.03125 L 257.0625 256.1875 C 257.06917 253.74433 258.37303 250.18288 261.0625 250.0625 z "
     id="path21568" />
  <path
     style="fill:#013997;stroke:none"
     d="m 294.78227,266.3694 -2.2855,-4.2853 c -2.5312,0.8618 -4.87574,2.1512 -7.61834,1.1713 -4.29675,-1.5341 -4.88717,-8.1554 -1.98363,-11.2618 1.5989,-1.7103 4.0063,-1.6008 6.07848,-0.9828 0.57995,0.1733 1.87316,1.0037 2.44454,0.8161 0.3533,-0.1161 0.52186,-0.6866 0.6847,-0.9799 l 1.63223,-3.0473 c -4.70528,-2.8778 -11.72749,-3.0302 -15.80711,1.0485 -5.64709,5.648 -4.03296,16.1899 3.52253,19.1782 2.02267,0.7999 4.15486,0.8237 6.28513,0.7275 2.55024,-0.1161 4.88622,-1.0618 7.04697,-2.3845 z"
     id="path21582"
     inkscape:connector-curvature="0" />
  <path
     style="fill:#013997;stroke:none"
     d="m 305.73363,248.752 0,-2.1903 -6.38036,0 0,21.7123 6.47559,0 0,-10.7609 0,-3.0474 0.0571,-1.4075 c 0.20474,-0.4609 1.21513,-0.7113 1.65699,-0.8732 1.40844,-0.5171 4.18057,-1.9284 5.5052,-0.6514 1.10847,1.0685 0.77993,3.2559 0.77993,4.6463 l 0,12.0941 6.47559,0 0,-11.1418 c 0,-2.0875 0.24665,-4.3501 -0.32663,-6.3804 -1.26179,-4.471 -5.78518,-5.9737 -9.8629,-4.3425 -1.52176,0.6086 -3.01305,1.4409 -4.38055,2.3427 z"
     id="path21598"
     inkscape:connector-curvature="0" />
  <path
     style="fill:#013997;stroke:none"
     d="M 338 245.65625 C 337.45876 245.63985 336.93727 245.68036 336.40625 245.75 C 333.47985 246.1348 330.79926 246.7286 328.59375 248.875 C 324.28653 253.0661 324.13469 261.4546 328.5 265.6875 C 331.25498 268.3587 335.35427 269.17965 339.0625 268.71875 C 341.08897 268.46635 343.00671 267.83805 344.6875 266.65625 C 349.44611 263.31085 350.49348 255.9988 347.59375 251.125 C 345.68976 247.9253 341.78871 245.77105 338 245.65625 z M 336.78125 250.59375 C 343.93773 249.96525 344.25729 263.40785 337.53125 263.96875 C 335.32764 264.15155 333.42683 262.7279 332.625 260.75 C 331.16133 257.136 332.21406 250.99565 336.78125 250.59375 z "
     id="path21610" />
  <path
     style="fill:#013997;stroke:none"
     d="M 378.1875 245.6875 C 377.89994 245.68879 377.62158 245.71357 377.34375 245.75 C 374.68304 246.0995 372.21069 246.59405 370.09375 248.40625 C 365.10659 252.67445 365.0067 261.6877 369.90625 266.0625 C 372.62409 268.489 376.57979 269.13965 380.09375 268.71875 C 381.81359 268.51305 383.59216 267.9976 385.0625 267.0625 C 390.99528 263.2914 391.95348 254.1474 387.0625 249.125 C 385.41885 247.4366 383.09723 246.3108 380.78125 245.9375 C 379.95632 245.80468 379.05019 245.68364 378.1875 245.6875 z M 378.5625 250.5625 C 382.92002 250.70748 383.78921 256.436 382.9375 259.90625 C 382.49659 261.70135 381.44494 263.5759 379.4375 263.875 C 378.72043 263.981 378.06083 263.969 377.34375 263.875 C 373.82788 263.4112 373.08385 259.74535 373.15625 256.84375 C 373.22958 253.86685 374.38911 251.01945 377.625 250.59375 C 377.94699 250.55149 378.272 250.55283 378.5625 250.5625 z "
     id="path21622" />
  <path
     style="fill:#013997;stroke:none"
     d="M 404.09375 245.71875 C 402.4497 245.7297 400.78719 246.11593 399.34375 246.875 C 394.26231 249.5481 392.96901 256.19585 397.15625 260.28125 C 397.86475 260.97165 398.71365 261.6067 399.625 262 L 396.28125 263.53125 C 395.90605 263.70735 395.29771 263.85015 395.0625 264.21875 C 394.81871 264.59965 394.96875 265.3764 394.96875 265.8125 C 394.96875 266.1991 394.8136 267.0259 395.125 267.3125 C 395.92873 268.0524 397.6895 268.1206 398.6875 268.5625 C 396.31249 269.3367 393.53605 270.497 392 272.5625 C 390.34777 274.7842 391.06512 278.0256 392.96875 279.875 C 395.07998 281.9252 398.37884 282.83415 401.25 283.03125 C 405.83148 283.34555 411.20116 282.186 414.6875 279.0625 C 417.05776 276.9389 418.14291 272.8996 416.125 270.1875 C 415.00892 268.6866 413.24443 267.7659 411.53125 267.125 C 408.28203 265.9098 404.73963 265.409 401.34375 264.75 C 405.77191 262.8445 411.88914 262.47265 413.59375 257.03125 C 413.86515 256.16465 413.90625 255.2759 413.90625 254.375 C 413.90625 253.2646 413.74466 252.25865 413.34375 251.21875 L 416.5 251.21875 L 416.5 246.5625 C 413.89262 246.5625 411.08738 246.84445 408.5 246.53125 L 405.71875 245.84375 C 405.18428 245.76637 404.64177 245.7151 404.09375 245.71875 z M 404.21875 249.75 C 407.43724 249.63112 407.70351 254.62966 406.96875 256.9375 C 406.64878 257.9431 405.96632 258.9976 404.875 259.25 C 403.49608 259.568 402.35054 258.60425 401.8125 257.40625 C 400.88306 255.33985 400.59533 250.52085 403.53125 249.84375 C 403.77272 249.78804 404.00418 249.75793 404.21875 249.75 z M 403.4375 270.15625 C 404.01554 270.09055 404.69863 270.4168 405.25 270.5625 C 407.03174 271.0329 410.4479 271.762 410.28125 274.1875 C 410.09175 276.9339 406.38497 278.2156 404.09375 278.4375 C 401.80158 278.6594 398.45202 278.24685 397.71875 275.59375 C 397.055 273.19595 399.88992 271.77185 401.625 270.90625 C 402.16305 270.63765 402.83279 270.22525 403.4375 270.15625 z "
     id="path21634" />
  <path
     style="fill:#013997;stroke:none"
     d="m 452.48193,262.0841 c -2.42359,1.0075 -4.87289,2.0617 -7.52312,1.1884 -4.60814,-1.5179 -5.09286,-9.182 -1.33321,-11.8741 2.44359,-1.7503 5.4595,-0.3571 7.90403,0.5914 0.60471,-1.4037 1.92078,-2.7731 2.19028,-4.2853 -4.42245,-1.8408 -9.02964,-3.0112 -13.52256,-0.5419 -6.70128,3.6825 -7.5193,14.1958 -1.80935,19.083 3.31207,2.835 8.43159,3.1749 12.47503,1.9884 0.98562,-0.2895 1.95506,-0.74 2.85688,-1.2275 0.26759,-0.1448 0.80754,-0.3438 0.91229,-0.6571 0.1219,-0.3647 -0.32282,-0.9199 -0.49138,-1.218 l -1.65889,-3.0473 z"
     id="path21646"
     inkscape:connector-curvature="0" />
  <path
     style="fill:#013997;stroke:none"
     d="M 468.84375 245.65625 C 468.56351 245.66862 468.27789 245.71352 468 245.75 C 465.30501 246.1043 462.79224 246.54835 460.65625 248.40625 C 455.651 252.75915 455.52008 261.77095 460.5625 266.15625 C 463.28892 268.52745 467.1661 269.13685 470.65625 268.71875 C 472.47418 268.50165 474.26503 267.9241 475.8125 266.9375 C 480.67777 263.834 482.10028 256.56565 479.40625 251.59375 C 477.43053 247.94763 473.04728 245.47066 468.84375 245.65625 z M 468.1875 250.59375 L 469.71875 250.71875 C 473.82313 251.47865 474.20262 256.42955 473.53125 259.71875 C 473.15224 261.57105 472.04838 263.5702 470 263.875 C 468.61441 264.0816 467.0671 263.9243 465.90625 263.0625 C 461.97614 260.1447 462.9518 251.28135 468.1875 250.59375 z "
     id="path21660" />
  <path
     style="fill:#013997;stroke:none"
     d="m 485.62171,261.7984 -1.49701,3.5235 c -0.1476,0.3418 -0.59518,1.018 -0.39615,1.3913 0.17141,0.3209 0.72374,0.4456 1.0361,0.5704 l 2.85687,0.9075 c 4.11676,1.0276 10.01336,1.0675 12.52646,-3.0597 1.45225,-2.3874 0.91611,-5.6052 -0.92468,-7.6174 -1.04561,-1.1418 -2.51595,-1.9208 -3.88821,-2.595 -1.13513,-0.559 -4.30341,-1.4313 -4.27198,-3.0245 0.0171,-0.8742 0.80754,-1.4484 1.60556,-1.5731 1.33036,-0.2076 2.99877,0.4618 4.19009,0.9884 0.35902,0.1591 1.11037,0.7562 1.50367,0.6371 0.35045,-0.1057 0.58852,-0.8066 0.75517,-1.0999 l 1.74079,-3.1425 c -3.29588,-1.3723 -6.76509,-2.5293 -10.37999,-1.7465 -3.96439,0.8589 -6.94602,4.5014 -5.28998,8.603 1.00276,2.4807 3.41396,3.7044 5.6709,4.8328 1.0399,0.52 2.34549,0.9971 3.09209,1.9323 0.79802,1.0008 0.2695,2.1978 -0.90182,2.5626 -1.27798,0.3971 -2.80164,-0.06 -3.99963,-0.5124 l -3.42825,-1.5779 z"
     id="path21672"
     inkscape:connector-curvature="0" />
  <path
     style="fill:#013997;stroke:none"
     d="m 88.61092,246.5617 0,21.7123 6.38036,0 0,-21.7123 -6.38036,0 z"
     id="path22202"
     inkscape:connector-curvature="0" />
  <path
     style="fill:#013997;stroke:none"
     d="m 123.94098,246.5617 0,10.9514 c 0,2.1502 -0.22379,4.4767 0.35711,6.5708 1.03895,3.752 4.57862,5.6299 8.30875,4.8367 2.23027,-0.4743 3.98058,-1.8932 5.99944,-2.8369 l 0,2.1903 6.28513,0 0,-21.7123 -6.47559,0 0,10.6657 0,3.0473 -0.0571,1.418 c -0.20665,0.4999 -1.19037,0.7447 -1.65699,0.9228 -1.3694,0.5209 -4.2158,1.9922 -5.49187,0.6866 -1.07705,-1.1028 -0.69804,-3.2474 -0.69804,-4.6463 l 0,-12.0941 -6.57081,0 z"
     id="path22208"
     inkscape:connector-curvature="0" />
  <path
     style="fill:#b7c7e2;stroke:none"
     d="m 299.25805,246.5617 0,21.7123 c 0.20855,-0.4971 0.0952,-1.179 0.0952,-1.7141 l 0,-3.714 0,-11.4275 c 0,-1.3618 0.42949,-3.6073 -0.0952,-4.8567 z"
     id="path22230"
     inkscape:connector-curvature="0" />
  <path
     style="fill:#c8d5e9;stroke:none"
     d="m 422.10379,246.5617 0,21.7123 c 0.52471,-1.2494 0.0952,-3.4949 0.0952,-4.8567 l 0,-11.4275 0,-3.714 c 0,-0.5352 0.11332,-1.217 -0.0952,-1.7141 z"
     id="path22246"
     inkscape:connector-curvature="0" />
  <path
     style="fill:#013997;stroke:none"
     d="m 422.19902,246.5617 0,21.7123 6.47559,0 0,-21.7123 -6.47559,0 z"
     id="path22248"
     inkscape:connector-curvature="0" />
  <path
     style="fill:#a8bbdc;stroke:none"
     d="m 428.67461,246.5617 0,21.7123 c 0.20855,-0.4971 0.0952,-1.179 0.0952,-1.7141 l 0,-3.714 0,-11.4275 c 0,-1.3618 0.42948,-3.6073 -0.0952,-4.8567 m 12.57026,0 0.0952,0.095 -0.0952,-0.095 z"
     id="path22250"
     inkscape:connector-curvature="0" />
  <path
     style="fill:#013997;stroke:none"
     d="M 441.15625 149.53125 L 441.15625 156.09375 C 441.15625 156.74795 441.41296 158.0593 441.0625 158.625 C 440.75586 159.1192 439.65335 159.41025 439.15625 159.71875 C 438.73438 159.98065 437.89287 160.9017 437.40625 160.875 C 436.79011 160.84 435.85608 159.98955 435.34375 159.65625 L 430.28125 156.46875 C 428.93566 158.46385 427.23354 160.63535 426.28125 162.84375 C 428.74864 164.50645 431.45727 166.6345 434.1875 167.8125 C 433.99894 168.6048 434.1341 169.3895 434.1875 170.1875 C 434.2113 170.5285 434.33676 170.88775 434.0625 171.15625 L 432.28125 172.3125 L 428.09375 174.96875 C 427.67474 175.23825 426.25874 175.8313 426.21875 176.375 C 426.18065 176.8988 426.97288 177.7628 427.25 178.1875 L 430 182.5625 C 430.81897 182.3749 431.58322 181.73555 432.28125 181.28125 L 436 178.90625 C 436.56281 178.53955 437.50851 177.6745 438.1875 177.625 L 438.96875 177.96875 C 439.51727 178.31065 440.9399 178.73905 441.1875 179.34375 C 441.47414 180.04555 441.25 181.2458 441.25 182 L 441.25 188.28125 L 448.6875 188.28125 L 448.6875 182.09375 C 448.6875 181.22145 448.46273 180.0938 448.6875 179.25 C 448.8132 178.7758 450.57873 177.7754 451.0625 177.8125 C 451.80433 177.8695 452.80422 178.7479 453.4375 179.125 C 455.29923 180.2335 457.4543 181.9521 459.53125 182.5625 L 462 178.375 L 463.25 176.09375 L 457.71875 172.875 C 457.04833 172.4903 455.76389 172.0054 455.3125 171.375 C 454.97539 170.9026 455.35859 169.41705 455.40625 168.84375 C 455.45195 168.28475 455.0971 167.48585 455.34375 166.96875 C 455.6542 166.31735 457.02219 165.7994 457.625 165.4375 L 463.53125 161.90625 C 462.80275 160.21595 461.60378 158.61015 460.65625 157.03125 C 460.43627 156.66465 460.04895 155.5924 459.59375 155.5 C 459.01285 155.3819 457.83323 156.42545 457.34375 156.71875 L 452.96875 159.34375 C 452.55165 159.59425 451.78025 160.2672 451.28125 160.25 L 450.5625 159.84375 L 448.71875 158.78125 C 448.31498 158.32225 448.5625 156.9607 448.5625 156.375 L 448.5625 149.53125 L 441.15625 149.53125 z M 445.09375 164.09375 C 450.38212 164.07228 450.93615 172.84728 445.34375 173.40625 C 440.70513 173.87005 438.5835 167.5859 442.28125 164.9375 C 442.96881 164.4452 443.73495 164.215 444.5625 164.125 C 444.74293 164.10545 444.92316 164.09444 445.09375 164.09375 z "
     id="path10598" />
  <path
     sodipodi:type="arc"
     style="fill:#013997;stroke:#013997;stroke-width:2.09241540000000015;stroke-miterlimit:4;stroke-opacity:1;stroke-dasharray:none;fill-opacity:0"
     id="path19255"
     sodipodi:cx="430.93231"
     sodipodi:cy="45.315617"
     sodipodi:rx="23.195591"
     sodipodi:ry="23.195591"
     d="m 454.1279,45.315617 a 23.195591,23.195591 0 1 1 -46.39118,0 23.195591,23.195591 0 1 1 46.39118,0 z"
     transform="matrix(0.95583315,0,0,0.95583315,63.911817,-19.13764)" />
  <g
     style="font-size:41.93020247999999839px;font-style:normal;font-weight:normal;line-height:125%;letter-spacing:0px;word-spacing:0px;fill:#013997;fill-opacity:1;stroke:none;font-family:Sans"
     id="text19257"
     transform="translate(-4e-5,-1.5389258e-4)">
    <path
       d="m 477.67867,25.420157 c 1.09861,0.255702 2.15104,0.860695 2.67142,1.474899 0.10135,0.128385 0.95989,1.07164 1.4208,1.835572 l 3.42019,5.440665 -1.58124,0.130544 -0.86239,0.0036 -0.56267,-0.151974 -0.30392,-0.246208 -0.47909,-0.627812 -2.05285,-3.443437 c -0.63128,-1.279602 -2.31433,-2.487925 -2.91147,-2.905937 -0.58863,-0.417998 -1.39479,-0.627 -2.41846,-0.627008 l -2.81514,0 0,8.074328 -2.58481,0 0,-19.104552 5.83501,0 c 2.18386,2e-5 5.63396,-0.203177 6.77069,0.682108 0.35367,0.192867 0.61968,0.360643 1.00228,0.732179 0.34629,0.336274 0.70863,0.92052 0.94408,1.35071 0.46252,0.845109 0.49042,1.840917 0.49043,2.730448 -1e-5,1.202844 -0.37084,1.823048 -0.93386,2.616393 -0.2832,0.405184 -0.88785,1.070458 -1.96393,1.443507 -0.1803,0.04594 -0.34236,0.147279 -0.55377,0.214278 -0.71133,0.225424 -1.55593,0.487515 -1.88545,0.590664 m -7.12067,-8.236137 0.0137,6.232265 3.45632,-0.06871 c 1.24524,-0.02475 3.90842,0.08525 4.58092,-0.396999 0.5772,-0.198751 0.67688,-0.420763 0.99493,-0.644877 0.1292,-0.09104 0.18789,-0.226913 0.25446,-0.335939 0.0948,-0.155209 0.17725,-0.291279 0.26003,-0.468344 0.11976,-0.256133 0.28852,-0.669681 0.28852,-1.00107 0,-0.429947 0.0489,-0.957669 -0.03,-1.11923 -0.039,-0.07982 -0.0333,-0.06628 -0.0557,-0.163274 -0.0148,-0.06387 -0.0576,-0.203423 -0.10071,-0.268962 -0.16921,-0.257364 -0.41437,-0.739731 -0.69975,-0.942516 -0.32877,-0.233618 -0.44384,-0.361823 -0.83275,-0.489068 -0.63128,-0.571542 -3.63437,-0.333262 -4.87985,-0.333279 l -3.2502,0"
       style="font-size:26.20637702999999874px;-inkscape-font-specification:Sans;fill:#013997;fill-opacity:1"
       id="path19263"
       inkscape:connector-curvature="0"
       sodipodi:nodetypes="cccccccccccsccccscsscccscccscssscssssccc" />
  </g>
</svg>
