<?xml version="1.0" encoding="UTF-8" standalone="no"?>
<!-- Created with Inkscape (http://www.inkscape.org/) -->

<svg
   xmlns:dc="http://purl.org/dc/elements/1.1/"
   xmlns:cc="http://creativecommons.org/ns#"
   xmlns:rdf="http://www.w3.org/1999/02/22-rdf-syntax-ns#"
   xmlns:svg="http://www.w3.org/2000/svg"
   xmlns="http://www.w3.org/2000/svg"
   xmlns:sodipodi="http://sodipodi.sourceforge.net/DTD/sodipodi-0.dtd"
   xmlns:inkscape="http://www.inkscape.org/namespaces/inkscape"
   width="400"
   height="400"
   id="svg2"
   version="1.1"
   inkscape:version="0.48.3.1 r9886"
   sodipodi:docname="ArtPoints.svg">
  <defs
     id="defs4" />
  <sodipodi:namedview
     id="base"
     pagecolor="#ffffff"
     bordercolor="#666666"
     borderopacity="1.0"
     inkscape:pageopacity="0.0"
     inkscape:pageshadow="2"
     inkscape:zoom="1.979899"
     inkscape:cx="290.58279"
     inkscape:cy="206.74431"
     inkscape:document-units="px"
     inkscape:current-layer="layer1"
     showgrid="false"
     inkscape:window-width="1920"
     inkscape:window-height="1027"
     inkscape:window-x="0"
     inkscape:window-y="0"
     inkscape:window-maximized="1" />
  <metadata
     id="metadata7">
    <rdf:RDF>
      <cc:Work
         rdf:about="">
        <dc:format>image/svg+xml</dc:format>
        <dc:type
           rdf:resource="http://purl.org/dc/dcmitype/StillImage" />
        <dc:title />
      </cc:Work>
    </rdf:RDF>
  </metadata>
  <g
     inkscape:label="Layer 1"
     inkscape:groupmode="layer"
     id="layer1"
     transform="translate(0,-652.36218)">
    <path
       sodipodi:type="arc"
       style="fill:#ffffff;fill-opacity:1;stroke:#000000;stroke-width:2;stroke-miterlimit:4;stroke-opacity:1;stroke-dasharray:none;stroke-dashoffset:0"
       id="path2985"
       sodipodi:cx="134.09775"
       sodipodi:cy="107.3083"
       sodipodi:rx="20.455589"
       sodipodi:ry="20.455589"
       d="m 154.55334,107.3083 c 0,11.29731 -9.15828,20.45559 -20.45559,20.45559 -11.29731,0 -20.45559,-9.15828 -20.45559,-20.45559 0,-11.297314 9.15828,-20.455593 20.45559,-20.455593 11.29731,0 20.45559,9.158279 20.45559,20.455593 z"
       transform="matrix(1.3635832,0,0,1.3635832,-30.607524,552.34779)" />
    <text
       xml:space="preserve"
       style="font-size:39.42760849px;font-style:normal;font-weight:normal;line-height:125%;letter-spacing:0px;word-spacing:0px;fill:#000000;fill-opacity:1;stroke:none;font-family:Sans"
       x="139.09921"
       y="710.72406"
       id="text3755"
       sodipodi:linespacing="125%"><tspan
         sodipodi:role="line"
         id="tspan3757"
         x="139.09921"
         y="710.72406">1</tspan></text>
    <path
       transform="matrix(1.3635832,0,0,1.3635832,-144.23929,694.47971)"
       sodipodi:type="arc"
       style="fill:#ffffff;fill-opacity:1;stroke:#000000;stroke-width:2;stroke-miterlimit:4;stroke-opacity:1;stroke-dasharray:none;stroke-dashoffset:0"
       id="path2985-7"
       sodipodi:cx="134.09775"
       sodipodi:cy="107.3083"
       sodipodi:rx="20.455589"
       sodipodi:ry="20.455589"
       d="m 154.55334,107.3083 c 0,11.29731 -9.15828,20.45559 -20.45559,20.45559 -11.29731,0 -20.45559,-9.15828 -20.45559,-20.45559 0,-11.297314 9.15828,-20.455593 20.45559,-20.455593 11.29731,0 20.45559,9.158279 20.45559,20.455593 z" />
    <text
       xml:space="preserve"
       style="font-size:39.42760849px;font-style:normal;font-weight:normal;line-height:125%;letter-spacing:0px;word-spacing:0px;fill:#000000;fill-opacity:1;stroke:none;font-family:Sans"
       x="25.467459"
       y="852.8559"
       id="text3755-7"
       sodipodi:linespacing="125%"><tspan
         sodipodi:role="line"
         id="tspan3757-5"
         x="25.467459"
         y="852.8559">2</tspan></text>
    <path
       transform="matrix(1.3635832,0,0,1.3635832,-20.535438,841.74838)"
       sodipodi:type="arc"
       style="fill:#ffffff;fill-opacity:1;stroke:#000000;stroke-width:2;stroke-miterlimit:4;stroke-opacity:1;stroke-dasharray:none;stroke-dashoffset:0"
       id="path2985-3"
       sodipodi:cx="134.09775"
       sodipodi:cy="107.3083"
       sodipodi:rx="20.455589"
       sodipodi:ry="20.455589"
       d="m 154.55334,107.3083 c 0,11.29731 -9.15828,20.45559 -20.45559,20.45559 -11.29731,0 -20.45559,-9.15828 -20.45559,-20.45559 0,-11.297314 9.15828,-20.455593 20.45559,-20.455593 11.29731,0 20.45559,9.158279 20.45559,20.455593 z" />
    <text
       xml:space="preserve"
       style="font-size:39.42760849px;font-style:normal;font-weight:normal;line-height:125%;letter-spacing:0px;word-spacing:0px;fill:#000000;fill-opacity:1;stroke:none;font-family:Sans"
       x="149.1713"
       y="1000.1246"
       id="text3755-5"
       sodipodi:linespacing="125%"><tspan
         sodipodi:role="line"
         id="tspan3757-4"
         x="149.1713"
         y="1000.1246">4</tspan></text>
    <path
       transform="matrix(1.3635832,0,0,1.3635832,128.30346,592.65039)"
       sodipodi:type="arc"
       style="fill:#ffffff;fill-opacity:1;stroke:#000000;stroke-width:2;stroke-miterlimit:4;stroke-opacity:1;stroke-dasharray:none;stroke-dashoffset:0"
       id="path2985-5"
       sodipodi:cx="134.09775"
       sodipodi:cy="107.3083"
       sodipodi:rx="20.455589"
       sodipodi:ry="20.455589"
       d="m 154.55334,107.3083 c 0,11.29731 -9.15828,20.45559 -20.45559,20.45559 -11.29731,0 -20.45559,-9.15828 -20.45559,-20.45559 0,-11.297314 9.15828,-20.455593 20.45559,-20.455593 11.29731,0 20.45559,9.158279 20.45559,20.455593 z" />
    <text
       xml:space="preserve"
       style="font-size:39.42760849px;font-style:normal;font-weight:normal;line-height:125%;letter-spacing:0px;word-spacing:0px;fill:#000000;fill-opacity:1;stroke:none;font-family:Sans"
       x="298.59866"
       y="751.61505"
       id="text3755-1"
       sodipodi:linespacing="125%"><tspan
         sodipodi:role="line"
         id="tspan3757-2"
         x="298.59866"
         y="751.61505">7</tspan></text>
    <path
       transform="matrix(1.3635832,0,0,1.3635832,137.8452,790.89958)"
       sodipodi:type="arc"
       style="fill:#ffffff;fill-opacity:1;stroke:#000000;stroke-width:2;stroke-miterlimit:4;stroke-opacity:1;stroke-dasharray:none;stroke-dashoffset:0"
       id="path2985-6"
       sodipodi:cx="134.09775"
       sodipodi:cy="107.3083"
       sodipodi:rx="20.455589"
       sodipodi:ry="20.455589"
       d="m 154.55334,107.3083 c 0,11.29731 -9.15828,20.45559 -20.45559,20.45559 -11.29731,0 -20.45559,-9.15828 -20.45559,-20.45559 0,-11.297314 9.15828,-20.455593 20.45559,-20.455593 11.29731,0 20.45559,9.158279 20.45559,20.455593 z" />
    <text
       xml:space="preserve"
       style="font-size:39.42760849px;font-style:normal;font-weight:normal;line-height:125%;letter-spacing:0px;word-spacing:0px;fill:#000000;fill-opacity:1;stroke:none;font-family:Sans"
       x="307.55194"
       y="949.2757"
       id="text3755-52"
       sodipodi:linespacing="125%"><tspan
         sodipodi:role="line"
         id="tspan3757-46"
         x="307.55194"
         y="949.2757">5</tspan></text>
    <path
       transform="matrix(1.3635832,0,0,1.3635832,27.65104,693.1023)"
       sodipodi:type="arc"
       style="fill:#ff0000;fill-opacity:1;stroke:#000000;stroke-width:2;stroke-miterlimit:4;stroke-opacity:1;stroke-dasharray:none;stroke-dashoffset:0"
       id="path2985-53"
       sodipodi:cx="134.09775"
       sodipodi:cy="107.3083"
       sodipodi:rx="20.455589"
       sodipodi:ry="20.455589"
       d="m 154.55334,107.3083 c 0,11.29731 -9.15828,20.45559 -20.45559,20.45559 -11.29731,0 -20.45559,-9.15828 -20.45559,-20.45559 0,-11.297314 9.15828,-20.455593 20.45559,-20.455593 11.29731,0 20.45559,9.158279 20.45559,20.455593 z" />
    <text
       xml:space="preserve"
       style="font-size:39.42760849px;font-style:normal;font-weight:normal;line-height:125%;letter-spacing:0px;word-spacing:0px;fill:#ffffff;fill-opacity:1;stroke:none;font-family:Sans"
       x="197.35779"
       y="851.47845"
       id="text3755-8"
       sodipodi:linespacing="125%"><tspan
         sodipodi:role="line"
         id="tspan3757-3"
         x="197.35779"
         y="851.47845">3</tspan></text>
    <path
       transform="matrix(1.3635832,0,0,1.3635832,179.85669,692.41358)"
       sodipodi:type="arc"
       style="fill:#ffffff;fill-opacity:1;stroke:#000000;stroke-width:2;stroke-miterlimit:4;stroke-opacity:1;stroke-dasharray:none;stroke-dashoffset:0"
       id="path2985-9"
       sodipodi:cx="134.09775"
       sodipodi:cy="107.3083"
       sodipodi:rx="20.455589"
       sodipodi:ry="20.455589"
       d="m 154.55334,107.3083 c 0,11.29731 -9.15828,20.45559 -20.45559,20.45559 -11.29731,0 -20.45559,-9.15828 -20.45559,-20.45559 0,-11.297314 9.15828,-20.455593 20.45559,-20.455593 11.29731,0 20.45559,9.158279 20.45559,20.455593 z" />
    <text
       xml:space="preserve"
       style="font-size:39.42760849px;font-style:normal;font-weight:normal;line-height:125%;letter-spacing:0px;word-spacing:0px;fill:#000000;fill-opacity:1;stroke:none;font-family:Sans"
       x="349.56342"
       y="850.78973"
       id="text3755-6"
       sodipodi:linespacing="125%"><tspan
         sodipodi:role="line"
         id="tspan3757-23"
         x="349.56342"
         y="850.78973">6</tspan></text>
    <path
       style="fill:none;stroke:#000000;stroke-width:1.36358309px;stroke-linecap:butt;stroke-linejoin:miter;stroke-opacity:1"
       d="m 237.36428,839.42606 97.1086,0.68871"
       id="path3842"
       inkscape:connector-curvature="0" />
    <path
       style="fill:none;stroke:#000000;stroke-width:1.36358309px;stroke-linecap:butt;stroke-linejoin:miter;stroke-opacity:1"
       d="m 331.0293,758.15787 21.35014,53.71965"
       id="path3844"
       inkscape:connector-curvature="0" />
    <path
       style="fill:none;stroke:#000000;stroke-width:1.36358309px;stroke-linecap:butt;stroke-linejoin:miter;stroke-opacity:1"
       d="M 337.91645,914.49582 361.33271,866.9746"
       id="path3846"
       inkscape:connector-curvature="0" />
    <path
       style="fill:none;stroke:#000000;stroke-width:1.34753275px;stroke-linecap:butt;stroke-linejoin:miter;stroke-opacity:1"
       d="m 299.48395,763.32798 -69.70355,55.4447"
       id="path3850"
       inkscape:connector-curvature="0" />
    <path
       style="fill:none;stroke:#000000;stroke-width:1.38830471px;stroke-linecap:butt;stroke-linejoin:miter;stroke-opacity:1"
       d="m 228.42337,860.78852 70.85931,58.16828"
       id="path3852"
       inkscape:connector-curvature="0" />
    <path
       style="fill:none;stroke:#000000;stroke-width:1.1704042px;stroke-linecap:butt;stroke-linejoin:miter;stroke-opacity:1"
       d="m 53.381633,863.41859 90.374257,102.7306"
       id="path3872"
       inkscape:connector-curvature="0" />
    <path
       style="fill:none;stroke:#000000;stroke-width:1.16504061px;stroke-linecap:butt;stroke-linejoin:miter;stroke-opacity:1"
       d="M 48.385916,815.14995 134.09962,718.61801"
       id="path3874"
       inkscape:connector-curvature="0" />
    <path
       style="fill:none;stroke:#000000;stroke-width:1.16504061px;stroke-linecap:butt;stroke-linejoin:miter;stroke-opacity:1"
       d="m 167.38649,959.94785 33.28688,-94.86758"
       id="path3878"
       inkscape:connector-curvature="0" />
    <path
       style="fill:none;stroke:#000000;stroke-width:1.16504061px;stroke-linecap:butt;stroke-linejoin:miter;stroke-opacity:1"
       d="M 65.861522,835.95425 181.53342,840.1151"
       id="path3880"
       inkscape:connector-curvature="0" />
    <path
       style="fill:none;stroke:#000000;stroke-width:1.16504061px;stroke-linecap:butt;stroke-linejoin:miter;stroke-opacity:1"
       d="m 169.05083,719.45019 34.11906,90.70673"
       id="path3882"
       inkscape:connector-curvature="0" />
  </g>
</svg>
