<?xml version="1.0" encoding="UTF-8" standalone="no"?>
<svg
   xmlns:dc="http://purl.org/dc/elements/1.1/"
   xmlns:cc="http://creativecommons.org/ns#"
   xmlns:rdf="http://www.w3.org/1999/02/22-rdf-syntax-ns#"
   xmlns:svg="http://www.w3.org/2000/svg"
   xmlns="http://www.w3.org/2000/svg"
   xmlns:sodipodi="http://sodipodi.sourceforge.net/DTD/sodipodi-0.dtd"
   xmlns:inkscape="http://www.inkscape.org/namespaces/inkscape"
   width="404.04977"
   height="312.53931"
   id="svg2"
   version="1.1"
   inkscape:version="0.48.5 r10040"
   sodipodi:docname="graph.svg"
   inkscape:export-filename="/home/rafa/graph.png"
   inkscape:export-xdpi="90"
   inkscape:export-ydpi="90">
  <metadata
     id="metadata132">
    <rdf:RDF>
      <cc:Work
         rdf:about="">
        <dc:format>image/svg+xml</dc:format>
        <dc:type
           rdf:resource="http://purl.org/dc/dcmitype/StillImage" />
        <dc:title></dc:title>
      </cc:Work>
    </rdf:RDF>
  </metadata>
  <sodipodi:namedview
     pagecolor="#ffffff"
     bordercolor="#666666"
     borderopacity="1"
     objecttolerance="10"
     gridtolerance="10"
     guidetolerance="10"
     inkscape:pageopacity="0"
     inkscape:pageshadow="2"
     inkscape:window-width="1920"
     inkscape:window-height="1029"
     id="namedview130"
     showgrid="false"
     fit-margin-top="0.5"
     fit-margin-left="0.5"
     fit-margin-bottom="0.5"
     fit-margin-right="0.5"
     inkscape:zoom="1.1278375"
     inkscape:cx="303.63525"
     inkscape:cy="164.83756"
     inkscape:window-x="0"
     inkscape:window-y="0"
     inkscape:window-maximized="1"
     inkscape:current-layer="svg2" />
  <defs
     id="defs4" />
  <g
     style="fill:none;stroke:#000000;stroke-width:1;stroke-opacity:1"
     id="g6"
     transform="matrix(0.6728711,0,0,0.6728711,-155.6061,-102.44928)">
    <path
       d="m 404,247 c -45,64 -45,64 -91,128"
       id="path8"
       inkscape:connector-curvature="0" />
  </g>
  <g
     id="g10"
     transform="translate(-427.45021,-303.96068)">
    <text
       x="359"
       y="302"
       style="font-size:29px;fill:#000000;font-family:Monospaced"
       text-rendering="auto"
       id="text12" />
  </g>
  <g
     style="fill:none;stroke:#000000;stroke-width:1;stroke-opacity:1"
     id="g14"
     transform="matrix(0.6728711,0,0,0.6728711,-155.6061,-102.44928)">
    <path
       d="m 470,242 c 67,67 67,67 134,134"
       id="path16"
       inkscape:connector-curvature="0" />
  </g>
  <g
     id="g18"
     transform="translate(-427.45021,-303.96068)">
    <text
       x="537"
       y="300"
       style="font-size:29px;fill:#000000;font-family:Monospaced"
       text-rendering="auto"
       id="text20" />
  </g>
  <g
     style="fill:none;stroke:#000000;stroke-width:1;stroke-opacity:1"
     id="g22"
     transform="matrix(0.6728711,0,0,0.6728711,-155.6061,-102.44928)">
    <path
       d="m 313,375 c 46,-64 46,-64 91,-128"
       id="path24"
       inkscape:connector-curvature="0" />
  </g>
  <g
     id="g26"
     transform="translate(-427.45021,-303.96068)">
    <text
       x="359"
       y="302"
       style="font-size:29px;fill:#000000;font-family:Monospaced"
       text-rendering="auto"
       id="text28" />
  </g>
  <g
     style="fill:none;stroke:#000000;stroke-width:1;stroke-opacity:1"
     id="g30"
     transform="matrix(0.6728711,0,0,0.6728711,-155.6061,-102.44928)">
    <path
       d="M 604,376 C 537,309 537,309 470,242"
       id="path32"
       inkscape:connector-curvature="0" />
  </g>
  <g
     id="g34"
     transform="translate(-427.45021,-303.96068)">
    <text
       x="537"
       y="300"
       style="font-size:29px;fill:#000000;font-family:Monospaced"
       text-rendering="auto"
       id="text36" />
  </g>
  <g
     style="fill:none;stroke:#000000;stroke-width:1;stroke-opacity:1"
     id="g38"
     transform="matrix(0.6728711,0,0,0.6728711,-155.6061,-102.44928)">
    <path
       d="m 674,449 c 36,39 36,39 71,78"
       id="path40"
       inkscape:connector-curvature="0" />
  </g>
  <g
     id="g42"
     transform="translate(-427.45021,-303.96068)">
    <text
       x="710"
       y="479"
       style="font-size:29px;fill:#000000;font-family:Monospaced"
       text-rendering="auto"
       id="text44" />
  </g>
  <g
     style="fill:none;stroke:#000000;stroke-width:1;stroke-opacity:1"
     id="g46"
     transform="matrix(0.6728711,0,0,0.6728711,-155.6061,-102.44928)">
    <path
       d="m 604,447 c -37,37 -37,37 -75,75"
       id="path48"
       inkscape:connector-curvature="0" />
  </g>
  <g
     id="g50"
     transform="translate(-427.45021,-303.96068)">
    <text
       x="567"
       y="475"
       style="font-size:29px;fill:#000000;font-family:Monospaced"
       text-rendering="auto"
       id="text52" />
  </g>
  <g
     style="fill:none;stroke:#000000;stroke-width:1;stroke-opacity:1"
     id="g54"
     transform="matrix(0.6728711,0,0,0.6728711,-155.6061,-102.44928)">
    <path
       d="M 745,527 C 710,488 710,488 674,449"
       id="path56"
       inkscape:connector-curvature="0" />
  </g>
  <g
     id="g58"
     transform="translate(-427.45021,-303.96068)">
    <text
       x="710"
       y="479"
       style="font-size:29px;fill:#000000;font-family:Monospaced"
       text-rendering="auto"
       id="text60" />
  </g>
  <g
     style="fill:none;stroke:#000000;stroke-width:1;stroke-opacity:1"
     id="g62"
     transform="matrix(0.6728711,0,0,0.6728711,-155.6061,-102.44928)">
    <path
       d="m 529,522 c 38,-38 38,-38 75,-75"
       id="path64"
       inkscape:connector-curvature="0" />
  </g>
  <g
     id="g66"
     transform="translate(-427.45021,-303.96068)">
    <text
       x="567"
       y="475"
       style="font-size:29px;fill:#000000;font-family:Monospaced"
       text-rendering="auto"
       id="text68" />
  </g>
  <g
     style="fill:none;stroke:#000000;stroke-width:4;stroke-opacity:1"
     id="g70"
     transform="matrix(0.6728711,0,0,0.6728711,-155.6061,-102.44928)">
    <path
       d="m 485,206 c 0,28.17 -22.83,51 -51,51 -28.17,0 -51,-22.83 -51,-51 0,-28.17 22.83,-51 51,-51 28.17,0 51,22.83 51,51 m 0,0"
       id="path72"
       inkscape:connector-curvature="0" />
  </g>
  <g
     style="fill:#ffffff;fill-opacity:1;stroke:none"
     id="g74"
     transform="matrix(0.6728711,0,0,0.6728711,-155.6061,-102.44928)">
    <path
       d="m 484,206 c 0,27.61 -22.39,50 -50,50 -27.61,0 -50,-22.39 -50,-50 0,-27.61 22.39,-50 50,-50 27.61,0 50,22.39 50,50 m 0,0"
       id="path76"
       inkscape:connector-curvature="0" />
  </g>
  <g
     id="g78"
     transform="matrix(0.6728711,0,0,0.6728711,-155.6061,-102.44928)">
    <text
       x="426"
       y="214"
       style="font-size:29px;fill:#000000;font-family:Monospaced"
       text-rendering="auto"
       id="text80">0</text>
  </g>
  <g
     style="fill:none;stroke:#000000;stroke-width:4;stroke-opacity:1"
     id="g82"
     transform="matrix(0.6728711,0,0,0.6728711,-155.6061,-102.44928)">
    <path
       d="m 334,416 c 0,27.61 -22.39,50 -50,50 -27.61,0 -50,-22.39 -50,-50 0,-27.61 22.39,-50 50,-50 27.61,0 50,22.39 50,50 m 0,0"
       id="path84"
       inkscape:connector-curvature="0" />
  </g>
  <g
     style="fill:#ffffff;fill-opacity:1;stroke:none"
     id="g86"
     transform="matrix(0.6728711,0,0,0.6728711,-155.6061,-102.44928)">
    <path
       d="m 333,416 c 0,27.06 -21.94,49 -49,49 -27.06,0 -49,-21.94 -49,-49 0,-27.06 21.94,-49 49,-49 27.06,0 49,21.94 49,49 m 0,0"
       id="path88"
       inkscape:connector-curvature="0" />
  </g>
  <g
     id="g90"
     transform="matrix(0.6728711,0,0,0.6728711,-155.6061,-102.44928)">
    <text
       x="276"
       y="424"
       style="font-size:29px;fill:#000000;font-family:Monospaced"
       text-rendering="auto"
       id="text92">1</text>
  </g>
  <g
     style="fill:none;stroke:#000000;stroke-width:4;stroke-opacity:1"
     id="g94"
     transform="matrix(0.6728711,0,0,0.6728711,-155.6061,-102.44928)">
    <path
       d="m 691,411 c 0,28.17 -22.83,51 -51,51 -28.17,0 -51,-22.83 -51,-51 0,-28.17 22.83,-51 51,-51 28.17,0 51,22.83 51,51 m 0,0"
       id="path96"
       inkscape:connector-curvature="0" />
  </g>
  <g
     style="fill:#ffffff;fill-opacity:1;stroke:none"
     id="g98"
     transform="matrix(0.6728711,0,0,0.6728711,-155.6061,-102.44928)">
    <path
       d="m 690,411 c 0,27.61 -22.39,50 -50,50 -27.61,0 -50,-22.39 -50,-50 0,-27.61 22.39,-50 50,-50 27.61,0 50,22.39 50,50 m 0,0"
       id="path100"
       inkscape:connector-curvature="0" />
  </g>
  <g
     id="g102"
     transform="matrix(0.6728711,0,0,0.6728711,-155.6061,-102.44928)">
    <text
       x="632"
       y="419"
       style="font-size:29px;fill:#000000;font-family:Monospaced"
       text-rendering="auto"
       id="text104">2</text>
  </g>
  <g
     style="fill:none;stroke:#000000;stroke-width:4;stroke-opacity:1"
     id="g106"
     transform="matrix(0.6728711,0,0,0.6728711,-155.6061,-102.44928)">
    <path
       d="m 829,564 c 0,27.61 -22.39,50 -50,50 -27.61,0 -50,-22.39 -50,-50 0,-27.61 22.39,-50 50,-50 27.61,0 50,22.39 50,50 m 0,0"
       id="path108"
       inkscape:connector-curvature="0" />
  </g>
  <g
     style="fill:#ffffff;fill-opacity:1;stroke:none"
     id="g110"
     transform="matrix(0.6728711,0,0,0.6728711,-155.6061,-102.44928)">
    <path
       d="m 828,564 c 0,27.06 -21.94,49 -49,49 -27.06,0 -49,-21.94 -49,-49 0,-27.06 21.94,-49 49,-49 27.06,0 49,21.94 49,49 m 0,0"
       id="path112"
       inkscape:connector-curvature="0" />
  </g>
  <g
     id="g114"
     transform="matrix(0.6728711,0,0,0.6728711,-155.6061,-102.44928)">
    <text
       x="771"
       y="572"
       style="font-size:29px;fill:#000000;font-family:Monospaced"
       text-rendering="auto"
       id="text116">3</text>
  </g>
  <g
     style="fill:none;stroke:#000000;stroke-width:4;stroke-opacity:1"
     id="g118"
     transform="matrix(0.6728711,0,0,0.6728711,-155.6061,-102.44928)">
    <path
       d="m 544,557 c 0,28.17 -22.83,51 -51,51 -28.17,0 -51,-22.83 -51,-51 0,-28.17 22.83,-51 51,-51 28.17,0 51,22.83 51,51 m 0,0"
       id="path120"
       inkscape:connector-curvature="0" />
  </g>
  <g
     style="fill:#ffffff;fill-opacity:1;stroke:none"
     id="g122"
     transform="matrix(0.6728711,0,0,0.6728711,-155.6061,-102.44928)">
    <path
       d="m 543,557 c 0,27.61 -22.39,50 -50,50 -27.61,0 -50,-22.39 -50,-50 0,-27.61 22.39,-50 50,-50 27.61,0 50,22.39 50,50 m 0,0"
       id="path124"
       inkscape:connector-curvature="0" />
  </g>
  <g
     id="g126"
     transform="matrix(0.6728711,0,0,0.6728711,-155.6061,-102.44928)">
    <text
       x="485"
       y="565"
       style="font-size:29px;fill:#000000;font-family:Monospaced"
       text-rendering="auto"
       id="text128">4</text>
  </g>
</svg>
